<mxfile host="Electron" modified="2024-02-23T06:07:31.425Z" agent="Mozilla/5.0 (Macintosh; Intel Mac OS X 10_15_7) AppleWebKit/537.36 (KHTML, like Gecko) draw.io/22.1.11 Chrome/114.0.5735.289 Electron/25.9.8 Safari/537.36" etag="g6CxbxKhs6ZIp5cLv5Am" version="22.1.11" type="device">
  <diagram name="Page-1" id="6hQPVssSqACBpoGcLpN3">
    <mxGraphModel dx="3397" dy="2440" grid="1" gridSize="10" guides="1" tooltips="1" connect="1" arrows="1" fold="1" page="1" pageScale="1" pageWidth="850" pageHeight="1100" math="0" shadow="0">
      <root>
        <mxCell id="0" />
        <mxCell id="1" parent="0" />
        <mxCell id="IAnXxCuGyKzDiA84Ap1S-501" value="" style="whiteSpace=wrap;html=1;aspect=fixed;" vertex="1" parent="1">
          <mxGeometry x="1121" y="2633.75" width="47" height="47" as="geometry" />
        </mxCell>
        <mxCell id="IAnXxCuGyKzDiA84Ap1S-2" value="START" style="whiteSpace=wrap;html=1;aspect=fixed;fillColor=#E6E6E6;" vertex="1" parent="1">
          <mxGeometry x="-19" y="350" width="47" height="47" as="geometry" />
        </mxCell>
        <mxCell id="IAnXxCuGyKzDiA84Ap1S-3" value="" style="whiteSpace=wrap;html=1;aspect=fixed;fillColor=#E6E6E6;" vertex="1" parent="1">
          <mxGeometry x="28" y="350" width="47" height="47" as="geometry" />
        </mxCell>
        <mxCell id="IAnXxCuGyKzDiA84Ap1S-4" value="" style="whiteSpace=wrap;html=1;aspect=fixed;" vertex="1" parent="1">
          <mxGeometry x="75" y="350" width="47" height="47" as="geometry" />
        </mxCell>
        <mxCell id="IAnXxCuGyKzDiA84Ap1S-5" value="" style="whiteSpace=wrap;html=1;aspect=fixed;" vertex="1" parent="1">
          <mxGeometry x="122" y="350" width="47" height="47" as="geometry" />
        </mxCell>
        <mxCell id="IAnXxCuGyKzDiA84Ap1S-6" value="" style="whiteSpace=wrap;html=1;aspect=fixed;" vertex="1" parent="1">
          <mxGeometry x="169" y="350" width="47" height="47" as="geometry" />
        </mxCell>
        <mxCell id="IAnXxCuGyKzDiA84Ap1S-7" value="" style="whiteSpace=wrap;html=1;aspect=fixed;" vertex="1" parent="1">
          <mxGeometry x="-19" y="397" width="47" height="47" as="geometry" />
        </mxCell>
        <mxCell id="IAnXxCuGyKzDiA84Ap1S-8" value="" style="whiteSpace=wrap;html=1;aspect=fixed;fillColor=#E6E6E6;" vertex="1" parent="1">
          <mxGeometry x="28" y="397" width="47" height="47" as="geometry" />
        </mxCell>
        <mxCell id="IAnXxCuGyKzDiA84Ap1S-9" value="PIT" style="whiteSpace=wrap;html=1;aspect=fixed;fontStyle=1" vertex="1" parent="1">
          <mxGeometry x="75" y="397" width="47" height="47" as="geometry" />
        </mxCell>
        <mxCell id="IAnXxCuGyKzDiA84Ap1S-10" value="" style="whiteSpace=wrap;html=1;aspect=fixed;" vertex="1" parent="1">
          <mxGeometry x="122" y="397" width="47" height="47" as="geometry" />
        </mxCell>
        <mxCell id="IAnXxCuGyKzDiA84Ap1S-11" value="" style="whiteSpace=wrap;html=1;aspect=fixed;" vertex="1" parent="1">
          <mxGeometry x="169" y="397" width="47" height="47" as="geometry" />
        </mxCell>
        <mxCell id="IAnXxCuGyKzDiA84Ap1S-12" value="" style="whiteSpace=wrap;html=1;aspect=fixed;" vertex="1" parent="1">
          <mxGeometry x="-19" y="444" width="47" height="47" as="geometry" />
        </mxCell>
        <mxCell id="IAnXxCuGyKzDiA84Ap1S-13" value="" style="whiteSpace=wrap;html=1;aspect=fixed;fillColor=#E6E6E6;" vertex="1" parent="1">
          <mxGeometry x="28" y="444" width="47" height="47" as="geometry" />
        </mxCell>
        <mxCell id="IAnXxCuGyKzDiA84Ap1S-14" value="" style="whiteSpace=wrap;html=1;aspect=fixed;fillColor=#E6E6E6;" vertex="1" parent="1">
          <mxGeometry x="75" y="444" width="47" height="47" as="geometry" />
        </mxCell>
        <mxCell id="IAnXxCuGyKzDiA84Ap1S-15" value="" style="whiteSpace=wrap;html=1;aspect=fixed;" vertex="1" parent="1">
          <mxGeometry x="122" y="444" width="47" height="47" as="geometry" />
        </mxCell>
        <mxCell id="IAnXxCuGyKzDiA84Ap1S-16" value="" style="whiteSpace=wrap;html=1;aspect=fixed;" vertex="1" parent="1">
          <mxGeometry x="169" y="444" width="47" height="47" as="geometry" />
        </mxCell>
        <mxCell id="IAnXxCuGyKzDiA84Ap1S-17" value="" style="whiteSpace=wrap;html=1;aspect=fixed;" vertex="1" parent="1">
          <mxGeometry x="-19" y="491" width="47" height="47" as="geometry" />
        </mxCell>
        <mxCell id="IAnXxCuGyKzDiA84Ap1S-18" value="PIT" style="whiteSpace=wrap;html=1;aspect=fixed;fontStyle=1" vertex="1" parent="1">
          <mxGeometry x="28" y="491" width="47" height="47" as="geometry" />
        </mxCell>
        <mxCell id="IAnXxCuGyKzDiA84Ap1S-19" value="" style="whiteSpace=wrap;html=1;aspect=fixed;fillColor=#E6E6E6;" vertex="1" parent="1">
          <mxGeometry x="75" y="491" width="47" height="47" as="geometry" />
        </mxCell>
        <mxCell id="IAnXxCuGyKzDiA84Ap1S-20" value="&lt;b&gt;&lt;font color=&quot;#ff0000&quot;&gt;GOAL&lt;/font&gt;&lt;/b&gt;" style="whiteSpace=wrap;html=1;aspect=fixed;fillColor=#E6E6E6;" vertex="1" parent="1">
          <mxGeometry x="122" y="491" width="47" height="47" as="geometry" />
        </mxCell>
        <mxCell id="IAnXxCuGyKzDiA84Ap1S-21" value="" style="whiteSpace=wrap;html=1;aspect=fixed;" vertex="1" parent="1">
          <mxGeometry x="169" y="491" width="47" height="47" as="geometry" />
        </mxCell>
        <mxCell id="IAnXxCuGyKzDiA84Ap1S-22" value="" style="whiteSpace=wrap;html=1;aspect=fixed;" vertex="1" parent="1">
          <mxGeometry x="-19" y="538" width="47" height="47" as="geometry" />
        </mxCell>
        <mxCell id="IAnXxCuGyKzDiA84Ap1S-23" value="" style="whiteSpace=wrap;html=1;aspect=fixed;" vertex="1" parent="1">
          <mxGeometry x="28" y="538" width="47" height="47" as="geometry" />
        </mxCell>
        <mxCell id="IAnXxCuGyKzDiA84Ap1S-24" value="" style="whiteSpace=wrap;html=1;aspect=fixed;" vertex="1" parent="1">
          <mxGeometry x="75" y="538" width="47" height="47" as="geometry" />
        </mxCell>
        <mxCell id="IAnXxCuGyKzDiA84Ap1S-25" value="" style="whiteSpace=wrap;html=1;aspect=fixed;" vertex="1" parent="1">
          <mxGeometry x="122" y="538" width="47" height="47" as="geometry" />
        </mxCell>
        <mxCell id="IAnXxCuGyKzDiA84Ap1S-26" value="" style="whiteSpace=wrap;html=1;aspect=fixed;" vertex="1" parent="1">
          <mxGeometry x="169" y="538" width="47" height="47" as="geometry" />
        </mxCell>
        <mxCell id="IAnXxCuGyKzDiA84Ap1S-29" value="START" style="whiteSpace=wrap;html=1;aspect=fixed;" vertex="1" parent="1">
          <mxGeometry x="276" y="350" width="47" height="47" as="geometry" />
        </mxCell>
        <mxCell id="IAnXxCuGyKzDiA84Ap1S-30" value="" style="whiteSpace=wrap;html=1;aspect=fixed;" vertex="1" parent="1">
          <mxGeometry x="323" y="350" width="47" height="47" as="geometry" />
        </mxCell>
        <mxCell id="IAnXxCuGyKzDiA84Ap1S-31" value="" style="whiteSpace=wrap;html=1;aspect=fixed;" vertex="1" parent="1">
          <mxGeometry x="370" y="350" width="47" height="47" as="geometry" />
        </mxCell>
        <mxCell id="IAnXxCuGyKzDiA84Ap1S-32" value="" style="whiteSpace=wrap;html=1;aspect=fixed;" vertex="1" parent="1">
          <mxGeometry x="417" y="350" width="47" height="47" as="geometry" />
        </mxCell>
        <mxCell id="IAnXxCuGyKzDiA84Ap1S-33" value="" style="whiteSpace=wrap;html=1;aspect=fixed;" vertex="1" parent="1">
          <mxGeometry x="464" y="350" width="47" height="47" as="geometry" />
        </mxCell>
        <mxCell id="IAnXxCuGyKzDiA84Ap1S-34" value="" style="whiteSpace=wrap;html=1;aspect=fixed;" vertex="1" parent="1">
          <mxGeometry x="276" y="397" width="47" height="47" as="geometry" />
        </mxCell>
        <mxCell id="IAnXxCuGyKzDiA84Ap1S-35" value="" style="whiteSpace=wrap;html=1;aspect=fixed;" vertex="1" parent="1">
          <mxGeometry x="323" y="397" width="47" height="47" as="geometry" />
        </mxCell>
        <mxCell id="IAnXxCuGyKzDiA84Ap1S-36" value="PIT" style="whiteSpace=wrap;html=1;aspect=fixed;fontStyle=1" vertex="1" parent="1">
          <mxGeometry x="370" y="397" width="47" height="47" as="geometry" />
        </mxCell>
        <mxCell id="IAnXxCuGyKzDiA84Ap1S-37" value="" style="whiteSpace=wrap;html=1;aspect=fixed;" vertex="1" parent="1">
          <mxGeometry x="417" y="397" width="47" height="47" as="geometry" />
        </mxCell>
        <mxCell id="IAnXxCuGyKzDiA84Ap1S-38" value="" style="whiteSpace=wrap;html=1;aspect=fixed;" vertex="1" parent="1">
          <mxGeometry x="464" y="397" width="47" height="47" as="geometry" />
        </mxCell>
        <mxCell id="IAnXxCuGyKzDiA84Ap1S-39" value="" style="whiteSpace=wrap;html=1;aspect=fixed;" vertex="1" parent="1">
          <mxGeometry x="276" y="444" width="47" height="47" as="geometry" />
        </mxCell>
        <mxCell id="IAnXxCuGyKzDiA84Ap1S-40" value="" style="whiteSpace=wrap;html=1;aspect=fixed;" vertex="1" parent="1">
          <mxGeometry x="323" y="444" width="47" height="47" as="geometry" />
        </mxCell>
        <mxCell id="IAnXxCuGyKzDiA84Ap1S-41" value="" style="whiteSpace=wrap;html=1;aspect=fixed;" vertex="1" parent="1">
          <mxGeometry x="370" y="444" width="47" height="47" as="geometry" />
        </mxCell>
        <mxCell id="IAnXxCuGyKzDiA84Ap1S-42" value="" style="whiteSpace=wrap;html=1;aspect=fixed;" vertex="1" parent="1">
          <mxGeometry x="417" y="444" width="47" height="47" as="geometry" />
        </mxCell>
        <mxCell id="IAnXxCuGyKzDiA84Ap1S-43" value="" style="whiteSpace=wrap;html=1;aspect=fixed;" vertex="1" parent="1">
          <mxGeometry x="464" y="444" width="47" height="47" as="geometry" />
        </mxCell>
        <mxCell id="IAnXxCuGyKzDiA84Ap1S-44" value="" style="whiteSpace=wrap;html=1;aspect=fixed;" vertex="1" parent="1">
          <mxGeometry x="276" y="491" width="47" height="47" as="geometry" />
        </mxCell>
        <mxCell id="IAnXxCuGyKzDiA84Ap1S-45" value="PIT" style="whiteSpace=wrap;html=1;aspect=fixed;fontStyle=1" vertex="1" parent="1">
          <mxGeometry x="323" y="491" width="47" height="47" as="geometry" />
        </mxCell>
        <mxCell id="IAnXxCuGyKzDiA84Ap1S-46" value="" style="whiteSpace=wrap;html=1;aspect=fixed;" vertex="1" parent="1">
          <mxGeometry x="370" y="491" width="47" height="47" as="geometry" />
        </mxCell>
        <mxCell id="IAnXxCuGyKzDiA84Ap1S-47" value="&lt;b&gt;&lt;font color=&quot;#ff0000&quot;&gt;GOAL&lt;/font&gt;&lt;/b&gt;" style="whiteSpace=wrap;html=1;aspect=fixed;" vertex="1" parent="1">
          <mxGeometry x="417" y="491" width="47" height="47" as="geometry" />
        </mxCell>
        <mxCell id="IAnXxCuGyKzDiA84Ap1S-48" value="" style="whiteSpace=wrap;html=1;aspect=fixed;" vertex="1" parent="1">
          <mxGeometry x="464" y="491" width="47" height="47" as="geometry" />
        </mxCell>
        <mxCell id="IAnXxCuGyKzDiA84Ap1S-49" value="" style="whiteSpace=wrap;html=1;aspect=fixed;" vertex="1" parent="1">
          <mxGeometry x="276" y="538" width="47" height="47" as="geometry" />
        </mxCell>
        <mxCell id="IAnXxCuGyKzDiA84Ap1S-50" value="" style="whiteSpace=wrap;html=1;aspect=fixed;" vertex="1" parent="1">
          <mxGeometry x="323" y="538" width="47" height="47" as="geometry" />
        </mxCell>
        <mxCell id="IAnXxCuGyKzDiA84Ap1S-51" value="" style="whiteSpace=wrap;html=1;aspect=fixed;" vertex="1" parent="1">
          <mxGeometry x="370" y="538" width="47" height="47" as="geometry" />
        </mxCell>
        <mxCell id="IAnXxCuGyKzDiA84Ap1S-52" value="" style="whiteSpace=wrap;html=1;aspect=fixed;" vertex="1" parent="1">
          <mxGeometry x="417" y="538" width="47" height="47" as="geometry" />
        </mxCell>
        <mxCell id="IAnXxCuGyKzDiA84Ap1S-53" value="" style="whiteSpace=wrap;html=1;aspect=fixed;" vertex="1" parent="1">
          <mxGeometry x="464" y="538" width="47" height="47" as="geometry" />
        </mxCell>
        <mxCell id="IAnXxCuGyKzDiA84Ap1S-54" value="" style="ellipse;whiteSpace=wrap;html=1;aspect=fixed;fillColor=#000000;" vertex="1" parent="1">
          <mxGeometry x="341.5" y="462.5" width="10" height="10" as="geometry" />
        </mxCell>
        <mxCell id="IAnXxCuGyKzDiA84Ap1S-55" value="START" style="whiteSpace=wrap;html=1;aspect=fixed;" vertex="1" parent="1">
          <mxGeometry x="540" y="350" width="47" height="47" as="geometry" />
        </mxCell>
        <mxCell id="IAnXxCuGyKzDiA84Ap1S-56" value="" style="whiteSpace=wrap;html=1;aspect=fixed;" vertex="1" parent="1">
          <mxGeometry x="587" y="350" width="47" height="47" as="geometry" />
        </mxCell>
        <mxCell id="IAnXxCuGyKzDiA84Ap1S-57" value="" style="whiteSpace=wrap;html=1;aspect=fixed;" vertex="1" parent="1">
          <mxGeometry x="634" y="350" width="47" height="47" as="geometry" />
        </mxCell>
        <mxCell id="IAnXxCuGyKzDiA84Ap1S-58" value="&lt;b&gt;PIT&lt;/b&gt;" style="whiteSpace=wrap;html=1;aspect=fixed;" vertex="1" parent="1">
          <mxGeometry x="681" y="350" width="47" height="47" as="geometry" />
        </mxCell>
        <mxCell id="IAnXxCuGyKzDiA84Ap1S-59" value="" style="whiteSpace=wrap;html=1;aspect=fixed;" vertex="1" parent="1">
          <mxGeometry x="728" y="350" width="47" height="47" as="geometry" />
        </mxCell>
        <mxCell id="IAnXxCuGyKzDiA84Ap1S-60" value="" style="whiteSpace=wrap;html=1;aspect=fixed;" vertex="1" parent="1">
          <mxGeometry x="540" y="397" width="47" height="47" as="geometry" />
        </mxCell>
        <mxCell id="IAnXxCuGyKzDiA84Ap1S-61" value="" style="whiteSpace=wrap;html=1;aspect=fixed;" vertex="1" parent="1">
          <mxGeometry x="587" y="397" width="47" height="47" as="geometry" />
        </mxCell>
        <mxCell id="IAnXxCuGyKzDiA84Ap1S-62" value="" style="whiteSpace=wrap;html=1;aspect=fixed;fontStyle=1" vertex="1" parent="1">
          <mxGeometry x="634" y="397" width="47" height="47" as="geometry" />
        </mxCell>
        <mxCell id="IAnXxCuGyKzDiA84Ap1S-63" value="" style="whiteSpace=wrap;html=1;aspect=fixed;" vertex="1" parent="1">
          <mxGeometry x="681" y="397" width="47" height="47" as="geometry" />
        </mxCell>
        <mxCell id="IAnXxCuGyKzDiA84Ap1S-64" value="" style="whiteSpace=wrap;html=1;aspect=fixed;" vertex="1" parent="1">
          <mxGeometry x="728" y="397" width="47" height="47" as="geometry" />
        </mxCell>
        <mxCell id="IAnXxCuGyKzDiA84Ap1S-65" value="" style="whiteSpace=wrap;html=1;aspect=fixed;" vertex="1" parent="1">
          <mxGeometry x="540" y="444" width="47" height="47" as="geometry" />
        </mxCell>
        <mxCell id="IAnXxCuGyKzDiA84Ap1S-66" value="" style="whiteSpace=wrap;html=1;aspect=fixed;" vertex="1" parent="1">
          <mxGeometry x="587" y="444" width="47" height="47" as="geometry" />
        </mxCell>
        <mxCell id="IAnXxCuGyKzDiA84Ap1S-67" value="" style="whiteSpace=wrap;html=1;aspect=fixed;" vertex="1" parent="1">
          <mxGeometry x="634" y="444" width="47" height="47" as="geometry" />
        </mxCell>
        <mxCell id="IAnXxCuGyKzDiA84Ap1S-68" value="" style="whiteSpace=wrap;html=1;aspect=fixed;" vertex="1" parent="1">
          <mxGeometry x="681" y="444" width="47" height="47" as="geometry" />
        </mxCell>
        <mxCell id="IAnXxCuGyKzDiA84Ap1S-69" value="" style="whiteSpace=wrap;html=1;aspect=fixed;" vertex="1" parent="1">
          <mxGeometry x="728" y="444" width="47" height="47" as="geometry" />
        </mxCell>
        <mxCell id="IAnXxCuGyKzDiA84Ap1S-70" value="" style="whiteSpace=wrap;html=1;aspect=fixed;" vertex="1" parent="1">
          <mxGeometry x="540" y="491" width="47" height="47" as="geometry" />
        </mxCell>
        <mxCell id="IAnXxCuGyKzDiA84Ap1S-71" value="PIT" style="whiteSpace=wrap;html=1;aspect=fixed;fontStyle=1" vertex="1" parent="1">
          <mxGeometry x="587" y="491" width="47" height="47" as="geometry" />
        </mxCell>
        <mxCell id="IAnXxCuGyKzDiA84Ap1S-72" value="" style="whiteSpace=wrap;html=1;aspect=fixed;" vertex="1" parent="1">
          <mxGeometry x="634" y="491" width="47" height="47" as="geometry" />
        </mxCell>
        <mxCell id="IAnXxCuGyKzDiA84Ap1S-73" value="" style="whiteSpace=wrap;html=1;aspect=fixed;" vertex="1" parent="1">
          <mxGeometry x="681" y="491" width="47" height="47" as="geometry" />
        </mxCell>
        <mxCell id="IAnXxCuGyKzDiA84Ap1S-74" value="&lt;b&gt;PIT&lt;/b&gt;" style="whiteSpace=wrap;html=1;aspect=fixed;" vertex="1" parent="1">
          <mxGeometry x="728" y="491" width="47" height="47" as="geometry" />
        </mxCell>
        <mxCell id="IAnXxCuGyKzDiA84Ap1S-75" value="" style="whiteSpace=wrap;html=1;aspect=fixed;" vertex="1" parent="1">
          <mxGeometry x="540" y="538" width="47" height="47" as="geometry" />
        </mxCell>
        <mxCell id="IAnXxCuGyKzDiA84Ap1S-76" value="" style="whiteSpace=wrap;html=1;aspect=fixed;" vertex="1" parent="1">
          <mxGeometry x="587" y="538" width="47" height="47" as="geometry" />
        </mxCell>
        <mxCell id="IAnXxCuGyKzDiA84Ap1S-77" value="&lt;b&gt;&lt;font color=&quot;#ff0000&quot;&gt;GOAL&lt;/font&gt;&lt;/b&gt;" style="whiteSpace=wrap;html=1;aspect=fixed;" vertex="1" parent="1">
          <mxGeometry x="634" y="538" width="47" height="47" as="geometry" />
        </mxCell>
        <mxCell id="IAnXxCuGyKzDiA84Ap1S-78" value="" style="whiteSpace=wrap;html=1;aspect=fixed;" vertex="1" parent="1">
          <mxGeometry x="681" y="538" width="47" height="47" as="geometry" />
        </mxCell>
        <mxCell id="IAnXxCuGyKzDiA84Ap1S-79" value="" style="whiteSpace=wrap;html=1;aspect=fixed;" vertex="1" parent="1">
          <mxGeometry x="728" y="538" width="47" height="47" as="geometry" />
        </mxCell>
        <mxCell id="IAnXxCuGyKzDiA84Ap1S-80" value="" style="ellipse;whiteSpace=wrap;html=1;aspect=fixed;fillColor=#000000;" vertex="1" parent="1">
          <mxGeometry x="699.5" y="462.5" width="10" height="10" as="geometry" />
        </mxCell>
        <mxCell id="IAnXxCuGyKzDiA84Ap1S-82" value="START" style="whiteSpace=wrap;html=1;aspect=fixed;" vertex="1" parent="1">
          <mxGeometry x="-19" y="643" width="47" height="47" as="geometry" />
        </mxCell>
        <mxCell id="IAnXxCuGyKzDiA84Ap1S-83" value="" style="whiteSpace=wrap;html=1;aspect=fixed;" vertex="1" parent="1">
          <mxGeometry x="28" y="643" width="47" height="47" as="geometry" />
        </mxCell>
        <mxCell id="IAnXxCuGyKzDiA84Ap1S-84" value="" style="whiteSpace=wrap;html=1;aspect=fixed;" vertex="1" parent="1">
          <mxGeometry x="75" y="643" width="47" height="47" as="geometry" />
        </mxCell>
        <mxCell id="IAnXxCuGyKzDiA84Ap1S-85" value="" style="whiteSpace=wrap;html=1;aspect=fixed;" vertex="1" parent="1">
          <mxGeometry x="122" y="643" width="47" height="47" as="geometry" />
        </mxCell>
        <mxCell id="IAnXxCuGyKzDiA84Ap1S-86" value="" style="whiteSpace=wrap;html=1;aspect=fixed;" vertex="1" parent="1">
          <mxGeometry x="169" y="643" width="47" height="47" as="geometry" />
        </mxCell>
        <mxCell id="IAnXxCuGyKzDiA84Ap1S-87" value="" style="whiteSpace=wrap;html=1;aspect=fixed;" vertex="1" parent="1">
          <mxGeometry x="-19" y="690" width="47" height="47" as="geometry" />
        </mxCell>
        <mxCell id="IAnXxCuGyKzDiA84Ap1S-88" value="" style="whiteSpace=wrap;html=1;aspect=fixed;" vertex="1" parent="1">
          <mxGeometry x="28" y="690" width="47" height="47" as="geometry" />
        </mxCell>
        <mxCell id="IAnXxCuGyKzDiA84Ap1S-89" value="PIT" style="whiteSpace=wrap;html=1;aspect=fixed;fontStyle=1" vertex="1" parent="1">
          <mxGeometry x="75" y="690" width="47" height="47" as="geometry" />
        </mxCell>
        <mxCell id="IAnXxCuGyKzDiA84Ap1S-90" value="" style="whiteSpace=wrap;html=1;aspect=fixed;" vertex="1" parent="1">
          <mxGeometry x="122" y="690" width="47" height="47" as="geometry" />
        </mxCell>
        <mxCell id="IAnXxCuGyKzDiA84Ap1S-91" value="" style="whiteSpace=wrap;html=1;aspect=fixed;" vertex="1" parent="1">
          <mxGeometry x="169" y="690" width="47" height="47" as="geometry" />
        </mxCell>
        <mxCell id="IAnXxCuGyKzDiA84Ap1S-92" value="" style="whiteSpace=wrap;html=1;aspect=fixed;" vertex="1" parent="1">
          <mxGeometry x="-19" y="737" width="47" height="47" as="geometry" />
        </mxCell>
        <mxCell id="IAnXxCuGyKzDiA84Ap1S-93" value="" style="whiteSpace=wrap;html=1;aspect=fixed;" vertex="1" parent="1">
          <mxGeometry x="28" y="737" width="47" height="47" as="geometry" />
        </mxCell>
        <mxCell id="IAnXxCuGyKzDiA84Ap1S-94" value="" style="whiteSpace=wrap;html=1;aspect=fixed;" vertex="1" parent="1">
          <mxGeometry x="75" y="737" width="47" height="47" as="geometry" />
        </mxCell>
        <mxCell id="IAnXxCuGyKzDiA84Ap1S-95" value="" style="whiteSpace=wrap;html=1;aspect=fixed;" vertex="1" parent="1">
          <mxGeometry x="122" y="737" width="47" height="47" as="geometry" />
        </mxCell>
        <mxCell id="IAnXxCuGyKzDiA84Ap1S-96" value="" style="whiteSpace=wrap;html=1;aspect=fixed;" vertex="1" parent="1">
          <mxGeometry x="169" y="737" width="47" height="47" as="geometry" />
        </mxCell>
        <mxCell id="IAnXxCuGyKzDiA84Ap1S-97" value="" style="whiteSpace=wrap;html=1;aspect=fixed;" vertex="1" parent="1">
          <mxGeometry x="-19" y="784" width="47" height="47" as="geometry" />
        </mxCell>
        <mxCell id="IAnXxCuGyKzDiA84Ap1S-98" value="PIT" style="whiteSpace=wrap;html=1;aspect=fixed;fontStyle=1" vertex="1" parent="1">
          <mxGeometry x="28" y="784" width="47" height="47" as="geometry" />
        </mxCell>
        <mxCell id="IAnXxCuGyKzDiA84Ap1S-99" value="" style="whiteSpace=wrap;html=1;aspect=fixed;" vertex="1" parent="1">
          <mxGeometry x="75" y="784" width="47" height="47" as="geometry" />
        </mxCell>
        <mxCell id="IAnXxCuGyKzDiA84Ap1S-100" value="&lt;b&gt;&lt;font color=&quot;#ff0000&quot;&gt;GOAL&lt;/font&gt;&lt;/b&gt;" style="whiteSpace=wrap;html=1;aspect=fixed;" vertex="1" parent="1">
          <mxGeometry x="122" y="784" width="47" height="47" as="geometry" />
        </mxCell>
        <mxCell id="IAnXxCuGyKzDiA84Ap1S-101" value="" style="whiteSpace=wrap;html=1;aspect=fixed;" vertex="1" parent="1">
          <mxGeometry x="169" y="784" width="47" height="47" as="geometry" />
        </mxCell>
        <mxCell id="IAnXxCuGyKzDiA84Ap1S-102" value="" style="whiteSpace=wrap;html=1;aspect=fixed;" vertex="1" parent="1">
          <mxGeometry x="-19" y="831" width="47" height="47" as="geometry" />
        </mxCell>
        <mxCell id="IAnXxCuGyKzDiA84Ap1S-103" value="" style="whiteSpace=wrap;html=1;aspect=fixed;" vertex="1" parent="1">
          <mxGeometry x="28" y="831" width="47" height="47" as="geometry" />
        </mxCell>
        <mxCell id="IAnXxCuGyKzDiA84Ap1S-104" value="" style="whiteSpace=wrap;html=1;aspect=fixed;" vertex="1" parent="1">
          <mxGeometry x="75" y="831" width="47" height="47" as="geometry" />
        </mxCell>
        <mxCell id="IAnXxCuGyKzDiA84Ap1S-105" value="" style="whiteSpace=wrap;html=1;aspect=fixed;" vertex="1" parent="1">
          <mxGeometry x="122" y="831" width="47" height="47" as="geometry" />
        </mxCell>
        <mxCell id="IAnXxCuGyKzDiA84Ap1S-106" value="" style="whiteSpace=wrap;html=1;aspect=fixed;" vertex="1" parent="1">
          <mxGeometry x="169" y="831" width="47" height="47" as="geometry" />
        </mxCell>
        <mxCell id="IAnXxCuGyKzDiA84Ap1S-115" value="" style="group" vertex="1" connectable="0" parent="1">
          <mxGeometry x="29.5" y="739.75" width="44" height="41.5" as="geometry" />
        </mxCell>
        <mxCell id="IAnXxCuGyKzDiA84Ap1S-110" value="" style="endArrow=classic;html=1;rounded=0;strokeWidth=1;strokeColor=#0052D9;" edge="1" parent="IAnXxCuGyKzDiA84Ap1S-115">
          <mxGeometry width="50" height="50" relative="1" as="geometry">
            <mxPoint x="22" y="16" as="sourcePoint" />
            <mxPoint x="22" as="targetPoint" />
          </mxGeometry>
        </mxCell>
        <mxCell id="IAnXxCuGyKzDiA84Ap1S-111" value="" style="endArrow=classic;html=1;rounded=0;strokeWidth=1;strokeColor=#0052D9;" edge="1" parent="IAnXxCuGyKzDiA84Ap1S-115">
          <mxGeometry width="50" height="50" relative="1" as="geometry">
            <mxPoint x="22" y="25.5" as="sourcePoint" />
            <mxPoint x="22" y="41.5" as="targetPoint" />
          </mxGeometry>
        </mxCell>
        <mxCell id="IAnXxCuGyKzDiA84Ap1S-112" value="" style="endArrow=classic;html=1;rounded=0;strokeWidth=1;strokeColor=#0052D9;" edge="1" parent="IAnXxCuGyKzDiA84Ap1S-115">
          <mxGeometry width="50" height="50" relative="1" as="geometry">
            <mxPoint x="28" y="21" as="sourcePoint" />
            <mxPoint x="44" y="21" as="targetPoint" />
          </mxGeometry>
        </mxCell>
        <mxCell id="IAnXxCuGyKzDiA84Ap1S-114" value="" style="endArrow=classic;html=1;rounded=0;strokeWidth=1;strokeColor=#0052D9;" edge="1" parent="IAnXxCuGyKzDiA84Ap1S-115">
          <mxGeometry width="50" height="50" relative="1" as="geometry">
            <mxPoint x="16" y="21" as="sourcePoint" />
            <mxPoint y="21" as="targetPoint" />
          </mxGeometry>
        </mxCell>
        <mxCell id="IAnXxCuGyKzDiA84Ap1S-107" value="" style="ellipse;whiteSpace=wrap;html=1;aspect=fixed;fillColor=#000000;" vertex="1" parent="IAnXxCuGyKzDiA84Ap1S-115">
          <mxGeometry x="17" y="15.75" width="10" height="10" as="geometry" />
        </mxCell>
        <mxCell id="IAnXxCuGyKzDiA84Ap1S-116" value="START" style="whiteSpace=wrap;html=1;aspect=fixed;" vertex="1" parent="1">
          <mxGeometry x="264" y="643" width="47" height="47" as="geometry" />
        </mxCell>
        <mxCell id="IAnXxCuGyKzDiA84Ap1S-117" value="" style="whiteSpace=wrap;html=1;aspect=fixed;" vertex="1" parent="1">
          <mxGeometry x="311" y="643" width="47" height="47" as="geometry" />
        </mxCell>
        <mxCell id="IAnXxCuGyKzDiA84Ap1S-118" value="" style="whiteSpace=wrap;html=1;aspect=fixed;" vertex="1" parent="1">
          <mxGeometry x="358" y="643" width="47" height="47" as="geometry" />
        </mxCell>
        <mxCell id="IAnXxCuGyKzDiA84Ap1S-119" value="" style="whiteSpace=wrap;html=1;aspect=fixed;" vertex="1" parent="1">
          <mxGeometry x="405" y="643" width="47" height="47" as="geometry" />
        </mxCell>
        <mxCell id="IAnXxCuGyKzDiA84Ap1S-120" value="" style="whiteSpace=wrap;html=1;aspect=fixed;" vertex="1" parent="1">
          <mxGeometry x="452" y="643" width="47" height="47" as="geometry" />
        </mxCell>
        <mxCell id="IAnXxCuGyKzDiA84Ap1S-121" value="" style="whiteSpace=wrap;html=1;aspect=fixed;" vertex="1" parent="1">
          <mxGeometry x="264" y="690" width="47" height="47" as="geometry" />
        </mxCell>
        <mxCell id="IAnXxCuGyKzDiA84Ap1S-122" value="" style="whiteSpace=wrap;html=1;aspect=fixed;" vertex="1" parent="1">
          <mxGeometry x="311" y="690" width="47" height="47" as="geometry" />
        </mxCell>
        <mxCell id="IAnXxCuGyKzDiA84Ap1S-123" value="PIT" style="whiteSpace=wrap;html=1;aspect=fixed;fontStyle=1" vertex="1" parent="1">
          <mxGeometry x="358" y="690" width="47" height="47" as="geometry" />
        </mxCell>
        <mxCell id="IAnXxCuGyKzDiA84Ap1S-124" value="" style="whiteSpace=wrap;html=1;aspect=fixed;" vertex="1" parent="1">
          <mxGeometry x="405" y="690" width="47" height="47" as="geometry" />
        </mxCell>
        <mxCell id="IAnXxCuGyKzDiA84Ap1S-125" value="" style="whiteSpace=wrap;html=1;aspect=fixed;" vertex="1" parent="1">
          <mxGeometry x="452" y="690" width="47" height="47" as="geometry" />
        </mxCell>
        <mxCell id="IAnXxCuGyKzDiA84Ap1S-126" value="" style="whiteSpace=wrap;html=1;aspect=fixed;" vertex="1" parent="1">
          <mxGeometry x="264" y="737" width="47" height="47" as="geometry" />
        </mxCell>
        <mxCell id="IAnXxCuGyKzDiA84Ap1S-127" value="" style="whiteSpace=wrap;html=1;aspect=fixed;" vertex="1" parent="1">
          <mxGeometry x="311" y="737" width="47" height="47" as="geometry" />
        </mxCell>
        <mxCell id="IAnXxCuGyKzDiA84Ap1S-128" value="" style="whiteSpace=wrap;html=1;aspect=fixed;" vertex="1" parent="1">
          <mxGeometry x="358" y="737" width="47" height="47" as="geometry" />
        </mxCell>
        <mxCell id="IAnXxCuGyKzDiA84Ap1S-129" value="" style="whiteSpace=wrap;html=1;aspect=fixed;" vertex="1" parent="1">
          <mxGeometry x="405" y="737" width="47" height="47" as="geometry" />
        </mxCell>
        <mxCell id="IAnXxCuGyKzDiA84Ap1S-130" value="" style="whiteSpace=wrap;html=1;aspect=fixed;" vertex="1" parent="1">
          <mxGeometry x="452" y="737" width="47" height="47" as="geometry" />
        </mxCell>
        <mxCell id="IAnXxCuGyKzDiA84Ap1S-131" value="" style="whiteSpace=wrap;html=1;aspect=fixed;" vertex="1" parent="1">
          <mxGeometry x="264" y="784" width="47" height="47" as="geometry" />
        </mxCell>
        <mxCell id="IAnXxCuGyKzDiA84Ap1S-132" value="PIT" style="whiteSpace=wrap;html=1;aspect=fixed;fontStyle=1" vertex="1" parent="1">
          <mxGeometry x="311" y="784" width="47" height="47" as="geometry" />
        </mxCell>
        <mxCell id="IAnXxCuGyKzDiA84Ap1S-133" value="" style="whiteSpace=wrap;html=1;aspect=fixed;" vertex="1" parent="1">
          <mxGeometry x="358" y="784" width="47" height="47" as="geometry" />
        </mxCell>
        <mxCell id="IAnXxCuGyKzDiA84Ap1S-134" value="&lt;b&gt;&lt;font color=&quot;#ff0000&quot;&gt;GOAL&lt;/font&gt;&lt;/b&gt;" style="whiteSpace=wrap;html=1;aspect=fixed;" vertex="1" parent="1">
          <mxGeometry x="405" y="784" width="47" height="47" as="geometry" />
        </mxCell>
        <mxCell id="IAnXxCuGyKzDiA84Ap1S-135" value="" style="whiteSpace=wrap;html=1;aspect=fixed;" vertex="1" parent="1">
          <mxGeometry x="452" y="784" width="47" height="47" as="geometry" />
        </mxCell>
        <mxCell id="IAnXxCuGyKzDiA84Ap1S-136" value="" style="whiteSpace=wrap;html=1;aspect=fixed;" vertex="1" parent="1">
          <mxGeometry x="264" y="831" width="47" height="47" as="geometry" />
        </mxCell>
        <mxCell id="IAnXxCuGyKzDiA84Ap1S-137" value="" style="whiteSpace=wrap;html=1;aspect=fixed;" vertex="1" parent="1">
          <mxGeometry x="311" y="831" width="47" height="47" as="geometry" />
        </mxCell>
        <mxCell id="IAnXxCuGyKzDiA84Ap1S-138" value="" style="whiteSpace=wrap;html=1;aspect=fixed;" vertex="1" parent="1">
          <mxGeometry x="358" y="831" width="47" height="47" as="geometry" />
        </mxCell>
        <mxCell id="IAnXxCuGyKzDiA84Ap1S-139" value="" style="whiteSpace=wrap;html=1;aspect=fixed;" vertex="1" parent="1">
          <mxGeometry x="405" y="831" width="47" height="47" as="geometry" />
        </mxCell>
        <mxCell id="IAnXxCuGyKzDiA84Ap1S-140" value="" style="whiteSpace=wrap;html=1;aspect=fixed;" vertex="1" parent="1">
          <mxGeometry x="452" y="831" width="47" height="47" as="geometry" />
        </mxCell>
        <mxCell id="IAnXxCuGyKzDiA84Ap1S-142" value="" style="group" vertex="1" connectable="0" parent="1">
          <mxGeometry x="359.5" y="833.75" width="44" height="41.5" as="geometry" />
        </mxCell>
        <mxCell id="IAnXxCuGyKzDiA84Ap1S-143" value="" style="endArrow=classic;html=1;rounded=0;strokeWidth=1;strokeColor=#0052D9;" edge="1" parent="IAnXxCuGyKzDiA84Ap1S-142">
          <mxGeometry width="50" height="50" relative="1" as="geometry">
            <mxPoint x="22" y="16" as="sourcePoint" />
            <mxPoint x="22" as="targetPoint" />
          </mxGeometry>
        </mxCell>
        <mxCell id="IAnXxCuGyKzDiA84Ap1S-145" value="" style="endArrow=classic;html=1;rounded=0;strokeWidth=1;strokeColor=#0052D9;" edge="1" parent="IAnXxCuGyKzDiA84Ap1S-142">
          <mxGeometry width="50" height="50" relative="1" as="geometry">
            <mxPoint x="28" y="21" as="sourcePoint" />
            <mxPoint x="44" y="21" as="targetPoint" />
          </mxGeometry>
        </mxCell>
        <mxCell id="IAnXxCuGyKzDiA84Ap1S-146" value="" style="endArrow=classic;html=1;rounded=0;strokeWidth=1;strokeColor=#0052D9;" edge="1" parent="IAnXxCuGyKzDiA84Ap1S-142">
          <mxGeometry width="50" height="50" relative="1" as="geometry">
            <mxPoint x="16" y="21" as="sourcePoint" />
            <mxPoint y="21" as="targetPoint" />
          </mxGeometry>
        </mxCell>
        <mxCell id="IAnXxCuGyKzDiA84Ap1S-147" value="" style="ellipse;whiteSpace=wrap;html=1;aspect=fixed;fillColor=#000000;" vertex="1" parent="1">
          <mxGeometry x="376.5" y="849.5" width="10" height="10" as="geometry" />
        </mxCell>
        <mxCell id="IAnXxCuGyKzDiA84Ap1S-148" value="START" style="whiteSpace=wrap;html=1;aspect=fixed;" vertex="1" parent="1">
          <mxGeometry x="-19" y="906" width="47" height="47" as="geometry" />
        </mxCell>
        <mxCell id="IAnXxCuGyKzDiA84Ap1S-149" value="" style="whiteSpace=wrap;html=1;aspect=fixed;" vertex="1" parent="1">
          <mxGeometry x="28" y="906" width="47" height="47" as="geometry" />
        </mxCell>
        <mxCell id="IAnXxCuGyKzDiA84Ap1S-150" value="" style="whiteSpace=wrap;html=1;aspect=fixed;" vertex="1" parent="1">
          <mxGeometry x="75" y="906" width="47" height="47" as="geometry" />
        </mxCell>
        <mxCell id="IAnXxCuGyKzDiA84Ap1S-151" value="" style="whiteSpace=wrap;html=1;aspect=fixed;" vertex="1" parent="1">
          <mxGeometry x="122" y="906" width="47" height="47" as="geometry" />
        </mxCell>
        <mxCell id="IAnXxCuGyKzDiA84Ap1S-152" value="" style="whiteSpace=wrap;html=1;aspect=fixed;" vertex="1" parent="1">
          <mxGeometry x="169" y="906" width="47" height="47" as="geometry" />
        </mxCell>
        <mxCell id="IAnXxCuGyKzDiA84Ap1S-153" value="" style="whiteSpace=wrap;html=1;aspect=fixed;" vertex="1" parent="1">
          <mxGeometry x="-19" y="953" width="47" height="47" as="geometry" />
        </mxCell>
        <mxCell id="IAnXxCuGyKzDiA84Ap1S-154" value="" style="whiteSpace=wrap;html=1;aspect=fixed;" vertex="1" parent="1">
          <mxGeometry x="28" y="953" width="47" height="47" as="geometry" />
        </mxCell>
        <mxCell id="IAnXxCuGyKzDiA84Ap1S-155" value="PIT" style="whiteSpace=wrap;html=1;aspect=fixed;fontStyle=1" vertex="1" parent="1">
          <mxGeometry x="75" y="953" width="47" height="47" as="geometry" />
        </mxCell>
        <mxCell id="IAnXxCuGyKzDiA84Ap1S-156" value="" style="whiteSpace=wrap;html=1;aspect=fixed;" vertex="1" parent="1">
          <mxGeometry x="122" y="953" width="47" height="47" as="geometry" />
        </mxCell>
        <mxCell id="IAnXxCuGyKzDiA84Ap1S-157" value="" style="whiteSpace=wrap;html=1;aspect=fixed;" vertex="1" parent="1">
          <mxGeometry x="169" y="953" width="47" height="47" as="geometry" />
        </mxCell>
        <mxCell id="IAnXxCuGyKzDiA84Ap1S-158" value="" style="whiteSpace=wrap;html=1;aspect=fixed;" vertex="1" parent="1">
          <mxGeometry x="-19" y="1000" width="47" height="47" as="geometry" />
        </mxCell>
        <mxCell id="IAnXxCuGyKzDiA84Ap1S-159" value="" style="whiteSpace=wrap;html=1;aspect=fixed;" vertex="1" parent="1">
          <mxGeometry x="28" y="1000" width="47" height="47" as="geometry" />
        </mxCell>
        <mxCell id="IAnXxCuGyKzDiA84Ap1S-160" value="" style="whiteSpace=wrap;html=1;aspect=fixed;" vertex="1" parent="1">
          <mxGeometry x="75" y="1000" width="47" height="47" as="geometry" />
        </mxCell>
        <mxCell id="IAnXxCuGyKzDiA84Ap1S-161" value="" style="whiteSpace=wrap;html=1;aspect=fixed;" vertex="1" parent="1">
          <mxGeometry x="122" y="1000" width="47" height="47" as="geometry" />
        </mxCell>
        <mxCell id="IAnXxCuGyKzDiA84Ap1S-162" value="" style="whiteSpace=wrap;html=1;aspect=fixed;" vertex="1" parent="1">
          <mxGeometry x="169" y="1000" width="47" height="47" as="geometry" />
        </mxCell>
        <mxCell id="IAnXxCuGyKzDiA84Ap1S-163" value="" style="whiteSpace=wrap;html=1;aspect=fixed;" vertex="1" parent="1">
          <mxGeometry x="-19" y="1047" width="47" height="47" as="geometry" />
        </mxCell>
        <mxCell id="IAnXxCuGyKzDiA84Ap1S-164" value="PIT" style="whiteSpace=wrap;html=1;aspect=fixed;fontStyle=1" vertex="1" parent="1">
          <mxGeometry x="28" y="1047" width="47" height="47" as="geometry" />
        </mxCell>
        <mxCell id="IAnXxCuGyKzDiA84Ap1S-165" value="" style="whiteSpace=wrap;html=1;aspect=fixed;" vertex="1" parent="1">
          <mxGeometry x="75" y="1047" width="47" height="47" as="geometry" />
        </mxCell>
        <mxCell id="IAnXxCuGyKzDiA84Ap1S-166" value="&lt;b&gt;&lt;font color=&quot;#ff0000&quot;&gt;GOAL&lt;/font&gt;&lt;/b&gt;" style="whiteSpace=wrap;html=1;aspect=fixed;" vertex="1" parent="1">
          <mxGeometry x="122" y="1047" width="47" height="47" as="geometry" />
        </mxCell>
        <mxCell id="IAnXxCuGyKzDiA84Ap1S-167" value="" style="whiteSpace=wrap;html=1;aspect=fixed;" vertex="1" parent="1">
          <mxGeometry x="169" y="1047" width="47" height="47" as="geometry" />
        </mxCell>
        <mxCell id="IAnXxCuGyKzDiA84Ap1S-168" value="" style="whiteSpace=wrap;html=1;aspect=fixed;" vertex="1" parent="1">
          <mxGeometry x="-19" y="1094" width="47" height="47" as="geometry" />
        </mxCell>
        <mxCell id="IAnXxCuGyKzDiA84Ap1S-169" value="" style="whiteSpace=wrap;html=1;aspect=fixed;" vertex="1" parent="1">
          <mxGeometry x="28" y="1094" width="47" height="47" as="geometry" />
        </mxCell>
        <mxCell id="IAnXxCuGyKzDiA84Ap1S-170" value="" style="whiteSpace=wrap;html=1;aspect=fixed;" vertex="1" parent="1">
          <mxGeometry x="75" y="1094" width="47" height="47" as="geometry" />
        </mxCell>
        <mxCell id="IAnXxCuGyKzDiA84Ap1S-171" value="" style="whiteSpace=wrap;html=1;aspect=fixed;" vertex="1" parent="1">
          <mxGeometry x="122" y="1094" width="47" height="47" as="geometry" />
        </mxCell>
        <mxCell id="IAnXxCuGyKzDiA84Ap1S-172" value="" style="whiteSpace=wrap;html=1;aspect=fixed;" vertex="1" parent="1">
          <mxGeometry x="169" y="1094" width="47" height="47" as="geometry" />
        </mxCell>
        <mxCell id="IAnXxCuGyKzDiA84Ap1S-173" value="" style="ellipse;whiteSpace=wrap;html=1;aspect=fixed;fillColor=#000000;" vertex="1" parent="1">
          <mxGeometry x="46.5" y="1018.5" width="10" height="10" as="geometry" />
        </mxCell>
        <mxCell id="IAnXxCuGyKzDiA84Ap1S-179" value="START" style="whiteSpace=wrap;html=1;aspect=fixed;" vertex="1" parent="1">
          <mxGeometry x="-19" y="1173" width="47" height="47" as="geometry" />
        </mxCell>
        <mxCell id="IAnXxCuGyKzDiA84Ap1S-180" value="" style="whiteSpace=wrap;html=1;aspect=fixed;" vertex="1" parent="1">
          <mxGeometry x="28" y="1173" width="47" height="47" as="geometry" />
        </mxCell>
        <mxCell id="IAnXxCuGyKzDiA84Ap1S-181" value="" style="whiteSpace=wrap;html=1;aspect=fixed;" vertex="1" parent="1">
          <mxGeometry x="75" y="1173" width="47" height="47" as="geometry" />
        </mxCell>
        <mxCell id="IAnXxCuGyKzDiA84Ap1S-182" value="" style="whiteSpace=wrap;html=1;aspect=fixed;" vertex="1" parent="1">
          <mxGeometry x="122" y="1173" width="47" height="47" as="geometry" />
        </mxCell>
        <mxCell id="IAnXxCuGyKzDiA84Ap1S-183" value="" style="whiteSpace=wrap;html=1;aspect=fixed;" vertex="1" parent="1">
          <mxGeometry x="169" y="1173" width="47" height="47" as="geometry" />
        </mxCell>
        <mxCell id="IAnXxCuGyKzDiA84Ap1S-184" value="" style="whiteSpace=wrap;html=1;aspect=fixed;" vertex="1" parent="1">
          <mxGeometry x="-19" y="1220" width="47" height="47" as="geometry" />
        </mxCell>
        <mxCell id="IAnXxCuGyKzDiA84Ap1S-185" value="" style="whiteSpace=wrap;html=1;aspect=fixed;" vertex="1" parent="1">
          <mxGeometry x="28" y="1220" width="47" height="47" as="geometry" />
        </mxCell>
        <mxCell id="IAnXxCuGyKzDiA84Ap1S-186" value="PIT" style="whiteSpace=wrap;html=1;aspect=fixed;fontStyle=1" vertex="1" parent="1">
          <mxGeometry x="75" y="1220" width="47" height="47" as="geometry" />
        </mxCell>
        <mxCell id="IAnXxCuGyKzDiA84Ap1S-187" value="" style="whiteSpace=wrap;html=1;aspect=fixed;" vertex="1" parent="1">
          <mxGeometry x="122" y="1220" width="47" height="47" as="geometry" />
        </mxCell>
        <mxCell id="IAnXxCuGyKzDiA84Ap1S-188" value="" style="whiteSpace=wrap;html=1;aspect=fixed;" vertex="1" parent="1">
          <mxGeometry x="169" y="1220" width="47" height="47" as="geometry" />
        </mxCell>
        <mxCell id="IAnXxCuGyKzDiA84Ap1S-189" value="" style="whiteSpace=wrap;html=1;aspect=fixed;" vertex="1" parent="1">
          <mxGeometry x="-19" y="1267" width="47" height="47" as="geometry" />
        </mxCell>
        <mxCell id="IAnXxCuGyKzDiA84Ap1S-190" value="" style="whiteSpace=wrap;html=1;aspect=fixed;" vertex="1" parent="1">
          <mxGeometry x="28" y="1267" width="47" height="47" as="geometry" />
        </mxCell>
        <mxCell id="IAnXxCuGyKzDiA84Ap1S-191" value="" style="whiteSpace=wrap;html=1;aspect=fixed;" vertex="1" parent="1">
          <mxGeometry x="75" y="1267" width="47" height="47" as="geometry" />
        </mxCell>
        <mxCell id="IAnXxCuGyKzDiA84Ap1S-192" value="" style="whiteSpace=wrap;html=1;aspect=fixed;" vertex="1" parent="1">
          <mxGeometry x="122" y="1267" width="47" height="47" as="geometry" />
        </mxCell>
        <mxCell id="IAnXxCuGyKzDiA84Ap1S-193" value="" style="whiteSpace=wrap;html=1;aspect=fixed;" vertex="1" parent="1">
          <mxGeometry x="169" y="1267" width="47" height="47" as="geometry" />
        </mxCell>
        <mxCell id="IAnXxCuGyKzDiA84Ap1S-194" value="" style="whiteSpace=wrap;html=1;aspect=fixed;" vertex="1" parent="1">
          <mxGeometry x="-19" y="1314" width="47" height="47" as="geometry" />
        </mxCell>
        <mxCell id="IAnXxCuGyKzDiA84Ap1S-195" value="PIT" style="whiteSpace=wrap;html=1;aspect=fixed;fontStyle=1" vertex="1" parent="1">
          <mxGeometry x="28" y="1314" width="47" height="47" as="geometry" />
        </mxCell>
        <mxCell id="IAnXxCuGyKzDiA84Ap1S-196" value="" style="whiteSpace=wrap;html=1;aspect=fixed;" vertex="1" parent="1">
          <mxGeometry x="75" y="1314" width="47" height="47" as="geometry" />
        </mxCell>
        <mxCell id="IAnXxCuGyKzDiA84Ap1S-197" value="&lt;b&gt;&lt;font color=&quot;#ff0000&quot;&gt;GOAL&lt;/font&gt;&lt;/b&gt;" style="whiteSpace=wrap;html=1;aspect=fixed;" vertex="1" parent="1">
          <mxGeometry x="122" y="1314" width="47" height="47" as="geometry" />
        </mxCell>
        <mxCell id="IAnXxCuGyKzDiA84Ap1S-198" value="" style="whiteSpace=wrap;html=1;aspect=fixed;" vertex="1" parent="1">
          <mxGeometry x="169" y="1314" width="47" height="47" as="geometry" />
        </mxCell>
        <mxCell id="IAnXxCuGyKzDiA84Ap1S-199" value="" style="whiteSpace=wrap;html=1;aspect=fixed;" vertex="1" parent="1">
          <mxGeometry x="-19" y="1361" width="47" height="47" as="geometry" />
        </mxCell>
        <mxCell id="IAnXxCuGyKzDiA84Ap1S-200" value="" style="whiteSpace=wrap;html=1;aspect=fixed;" vertex="1" parent="1">
          <mxGeometry x="28" y="1361" width="47" height="47" as="geometry" />
        </mxCell>
        <mxCell id="IAnXxCuGyKzDiA84Ap1S-201" value="" style="whiteSpace=wrap;html=1;aspect=fixed;" vertex="1" parent="1">
          <mxGeometry x="75" y="1361" width="47" height="47" as="geometry" />
        </mxCell>
        <mxCell id="IAnXxCuGyKzDiA84Ap1S-202" value="" style="whiteSpace=wrap;html=1;aspect=fixed;" vertex="1" parent="1">
          <mxGeometry x="122" y="1361" width="47" height="47" as="geometry" />
        </mxCell>
        <mxCell id="IAnXxCuGyKzDiA84Ap1S-203" value="" style="whiteSpace=wrap;html=1;aspect=fixed;" vertex="1" parent="1">
          <mxGeometry x="169" y="1361" width="47" height="47" as="geometry" />
        </mxCell>
        <mxCell id="IAnXxCuGyKzDiA84Ap1S-204" value="" style="ellipse;whiteSpace=wrap;html=1;aspect=fixed;fillColor=#000000;" vertex="1" parent="1">
          <mxGeometry x="93.5" y="1285.5" width="10" height="10" as="geometry" />
        </mxCell>
        <mxCell id="IAnXxCuGyKzDiA84Ap1S-205" value="" style="endArrow=classic;html=1;rounded=0;strokeWidth=1;strokeColor=#0052D9;" edge="1" parent="1">
          <mxGeometry width="50" height="50" relative="1" as="geometry">
            <mxPoint x="308" y="1129.83" as="sourcePoint" />
            <mxPoint x="324" y="1129.83" as="targetPoint" />
          </mxGeometry>
        </mxCell>
        <mxCell id="IAnXxCuGyKzDiA84Ap1S-206" value="执行“向右走”这个动作" style="text;html=1;strokeColor=none;fillColor=none;align=center;verticalAlign=middle;whiteSpace=wrap;rounded=0;" vertex="1" parent="1">
          <mxGeometry x="260" y="1143" width="119.5" height="30" as="geometry" />
        </mxCell>
        <mxCell id="IAnXxCuGyKzDiA84Ap1S-207" value="" style="endArrow=classic;html=1;curved=1;" edge="1" parent="1">
          <mxGeometry width="50" height="50" relative="1" as="geometry">
            <mxPoint x="235" y="1005" as="sourcePoint" />
            <mxPoint x="315" y="1092" as="targetPoint" />
            <Array as="points">
              <mxPoint x="315" y="1020" />
            </Array>
          </mxGeometry>
        </mxCell>
        <mxCell id="IAnXxCuGyKzDiA84Ap1S-208" value="" style="endArrow=classic;html=1;curved=1;" edge="1" parent="1">
          <mxGeometry width="50" height="50" relative="1" as="geometry">
            <mxPoint x="316" y="1186" as="sourcePoint" />
            <mxPoint x="237" y="1299" as="targetPoint" />
            <Array as="points">
              <mxPoint x="324" y="1277" />
            </Array>
          </mxGeometry>
        </mxCell>
        <mxCell id="IAnXxCuGyKzDiA84Ap1S-209" value="START" style="whiteSpace=wrap;html=1;aspect=fixed;" vertex="1" parent="1">
          <mxGeometry x="-383" y="1447" width="47" height="47" as="geometry" />
        </mxCell>
        <mxCell id="IAnXxCuGyKzDiA84Ap1S-210" value="" style="whiteSpace=wrap;html=1;aspect=fixed;" vertex="1" parent="1">
          <mxGeometry x="-336" y="1447" width="47" height="47" as="geometry" />
        </mxCell>
        <mxCell id="IAnXxCuGyKzDiA84Ap1S-211" value="" style="whiteSpace=wrap;html=1;aspect=fixed;" vertex="1" parent="1">
          <mxGeometry x="-289" y="1447" width="47" height="47" as="geometry" />
        </mxCell>
        <mxCell id="IAnXxCuGyKzDiA84Ap1S-212" value="" style="whiteSpace=wrap;html=1;aspect=fixed;" vertex="1" parent="1">
          <mxGeometry x="-242" y="1447" width="47" height="47" as="geometry" />
        </mxCell>
        <mxCell id="IAnXxCuGyKzDiA84Ap1S-213" value="" style="whiteSpace=wrap;html=1;aspect=fixed;" vertex="1" parent="1">
          <mxGeometry x="-195" y="1447" width="47" height="47" as="geometry" />
        </mxCell>
        <mxCell id="IAnXxCuGyKzDiA84Ap1S-214" value="" style="whiteSpace=wrap;html=1;aspect=fixed;" vertex="1" parent="1">
          <mxGeometry x="-383" y="1494" width="47" height="47" as="geometry" />
        </mxCell>
        <mxCell id="IAnXxCuGyKzDiA84Ap1S-215" value="" style="whiteSpace=wrap;html=1;aspect=fixed;" vertex="1" parent="1">
          <mxGeometry x="-336" y="1494" width="47" height="47" as="geometry" />
        </mxCell>
        <mxCell id="IAnXxCuGyKzDiA84Ap1S-216" value="PIT" style="whiteSpace=wrap;html=1;aspect=fixed;fontStyle=1" vertex="1" parent="1">
          <mxGeometry x="-289" y="1494" width="47" height="47" as="geometry" />
        </mxCell>
        <mxCell id="IAnXxCuGyKzDiA84Ap1S-217" value="" style="whiteSpace=wrap;html=1;aspect=fixed;" vertex="1" parent="1">
          <mxGeometry x="-242" y="1494" width="47" height="47" as="geometry" />
        </mxCell>
        <mxCell id="IAnXxCuGyKzDiA84Ap1S-218" value="" style="whiteSpace=wrap;html=1;aspect=fixed;" vertex="1" parent="1">
          <mxGeometry x="-195" y="1494" width="47" height="47" as="geometry" />
        </mxCell>
        <mxCell id="IAnXxCuGyKzDiA84Ap1S-219" value="" style="whiteSpace=wrap;html=1;aspect=fixed;" vertex="1" parent="1">
          <mxGeometry x="-383" y="1541" width="47" height="47" as="geometry" />
        </mxCell>
        <mxCell id="IAnXxCuGyKzDiA84Ap1S-220" value="" style="whiteSpace=wrap;html=1;aspect=fixed;" vertex="1" parent="1">
          <mxGeometry x="-336" y="1541" width="47" height="47" as="geometry" />
        </mxCell>
        <mxCell id="IAnXxCuGyKzDiA84Ap1S-221" value="" style="whiteSpace=wrap;html=1;aspect=fixed;" vertex="1" parent="1">
          <mxGeometry x="-289" y="1541" width="47" height="47" as="geometry" />
        </mxCell>
        <mxCell id="IAnXxCuGyKzDiA84Ap1S-222" value="" style="whiteSpace=wrap;html=1;aspect=fixed;" vertex="1" parent="1">
          <mxGeometry x="-242" y="1541" width="47" height="47" as="geometry" />
        </mxCell>
        <mxCell id="IAnXxCuGyKzDiA84Ap1S-223" value="" style="whiteSpace=wrap;html=1;aspect=fixed;" vertex="1" parent="1">
          <mxGeometry x="-195" y="1541" width="47" height="47" as="geometry" />
        </mxCell>
        <mxCell id="IAnXxCuGyKzDiA84Ap1S-224" value="" style="whiteSpace=wrap;html=1;aspect=fixed;" vertex="1" parent="1">
          <mxGeometry x="-383" y="1588" width="47" height="47" as="geometry" />
        </mxCell>
        <mxCell id="IAnXxCuGyKzDiA84Ap1S-225" value="PIT" style="whiteSpace=wrap;html=1;aspect=fixed;fontStyle=1" vertex="1" parent="1">
          <mxGeometry x="-336" y="1588" width="47" height="47" as="geometry" />
        </mxCell>
        <mxCell id="IAnXxCuGyKzDiA84Ap1S-226" value="" style="whiteSpace=wrap;html=1;aspect=fixed;" vertex="1" parent="1">
          <mxGeometry x="-289" y="1588" width="47" height="47" as="geometry" />
        </mxCell>
        <mxCell id="IAnXxCuGyKzDiA84Ap1S-227" value="&lt;b&gt;&lt;font color=&quot;#ff0000&quot;&gt;GOAL&lt;/font&gt;&lt;/b&gt;" style="whiteSpace=wrap;html=1;aspect=fixed;" vertex="1" parent="1">
          <mxGeometry x="-242" y="1588" width="47" height="47" as="geometry" />
        </mxCell>
        <mxCell id="IAnXxCuGyKzDiA84Ap1S-228" value="" style="whiteSpace=wrap;html=1;aspect=fixed;" vertex="1" parent="1">
          <mxGeometry x="-195" y="1588" width="47" height="47" as="geometry" />
        </mxCell>
        <mxCell id="IAnXxCuGyKzDiA84Ap1S-229" value="" style="whiteSpace=wrap;html=1;aspect=fixed;" vertex="1" parent="1">
          <mxGeometry x="-383" y="1635" width="47" height="47" as="geometry" />
        </mxCell>
        <mxCell id="IAnXxCuGyKzDiA84Ap1S-230" value="" style="whiteSpace=wrap;html=1;aspect=fixed;" vertex="1" parent="1">
          <mxGeometry x="-336" y="1635" width="47" height="47" as="geometry" />
        </mxCell>
        <mxCell id="IAnXxCuGyKzDiA84Ap1S-231" value="" style="whiteSpace=wrap;html=1;aspect=fixed;" vertex="1" parent="1">
          <mxGeometry x="-289" y="1635" width="47" height="47" as="geometry" />
        </mxCell>
        <mxCell id="IAnXxCuGyKzDiA84Ap1S-232" value="" style="whiteSpace=wrap;html=1;aspect=fixed;" vertex="1" parent="1">
          <mxGeometry x="-242" y="1635" width="47" height="47" as="geometry" />
        </mxCell>
        <mxCell id="IAnXxCuGyKzDiA84Ap1S-233" value="" style="whiteSpace=wrap;html=1;aspect=fixed;" vertex="1" parent="1">
          <mxGeometry x="-195" y="1635" width="47" height="47" as="geometry" />
        </mxCell>
        <mxCell id="IAnXxCuGyKzDiA84Ap1S-234" value="" style="ellipse;whiteSpace=wrap;html=1;aspect=fixed;fillColor=#000000;" vertex="1" parent="1">
          <mxGeometry x="-270.5" y="1606.5" width="10" height="10" as="geometry" />
        </mxCell>
        <mxCell id="IAnXxCuGyKzDiA84Ap1S-235" value="START" style="whiteSpace=wrap;html=1;aspect=fixed;" vertex="1" parent="1">
          <mxGeometry x="38" y="1447" width="47" height="47" as="geometry" />
        </mxCell>
        <mxCell id="IAnXxCuGyKzDiA84Ap1S-236" value="" style="whiteSpace=wrap;html=1;aspect=fixed;" vertex="1" parent="1">
          <mxGeometry x="85" y="1447" width="47" height="47" as="geometry" />
        </mxCell>
        <mxCell id="IAnXxCuGyKzDiA84Ap1S-237" value="" style="whiteSpace=wrap;html=1;aspect=fixed;" vertex="1" parent="1">
          <mxGeometry x="132" y="1447" width="47" height="47" as="geometry" />
        </mxCell>
        <mxCell id="IAnXxCuGyKzDiA84Ap1S-238" value="" style="whiteSpace=wrap;html=1;aspect=fixed;" vertex="1" parent="1">
          <mxGeometry x="179" y="1447" width="47" height="47" as="geometry" />
        </mxCell>
        <mxCell id="IAnXxCuGyKzDiA84Ap1S-239" value="" style="whiteSpace=wrap;html=1;aspect=fixed;" vertex="1" parent="1">
          <mxGeometry x="226" y="1447" width="47" height="47" as="geometry" />
        </mxCell>
        <mxCell id="IAnXxCuGyKzDiA84Ap1S-240" value="" style="whiteSpace=wrap;html=1;aspect=fixed;" vertex="1" parent="1">
          <mxGeometry x="38" y="1494" width="47" height="47" as="geometry" />
        </mxCell>
        <mxCell id="IAnXxCuGyKzDiA84Ap1S-241" value="" style="whiteSpace=wrap;html=1;aspect=fixed;" vertex="1" parent="1">
          <mxGeometry x="85" y="1494" width="47" height="47" as="geometry" />
        </mxCell>
        <mxCell id="IAnXxCuGyKzDiA84Ap1S-242" value="PIT" style="whiteSpace=wrap;html=1;aspect=fixed;fontStyle=1" vertex="1" parent="1">
          <mxGeometry x="132" y="1494" width="47" height="47" as="geometry" />
        </mxCell>
        <mxCell id="IAnXxCuGyKzDiA84Ap1S-243" value="" style="whiteSpace=wrap;html=1;aspect=fixed;" vertex="1" parent="1">
          <mxGeometry x="179" y="1494" width="47" height="47" as="geometry" />
        </mxCell>
        <mxCell id="IAnXxCuGyKzDiA84Ap1S-244" value="" style="whiteSpace=wrap;html=1;aspect=fixed;" vertex="1" parent="1">
          <mxGeometry x="226" y="1494" width="47" height="47" as="geometry" />
        </mxCell>
        <mxCell id="IAnXxCuGyKzDiA84Ap1S-245" value="" style="whiteSpace=wrap;html=1;aspect=fixed;" vertex="1" parent="1">
          <mxGeometry x="38" y="1541" width="47" height="47" as="geometry" />
        </mxCell>
        <mxCell id="IAnXxCuGyKzDiA84Ap1S-246" value="" style="whiteSpace=wrap;html=1;aspect=fixed;" vertex="1" parent="1">
          <mxGeometry x="85" y="1541" width="47" height="47" as="geometry" />
        </mxCell>
        <mxCell id="IAnXxCuGyKzDiA84Ap1S-247" value="" style="whiteSpace=wrap;html=1;aspect=fixed;" vertex="1" parent="1">
          <mxGeometry x="132" y="1541" width="47" height="47" as="geometry" />
        </mxCell>
        <mxCell id="IAnXxCuGyKzDiA84Ap1S-248" value="" style="whiteSpace=wrap;html=1;aspect=fixed;" vertex="1" parent="1">
          <mxGeometry x="179" y="1541" width="47" height="47" as="geometry" />
        </mxCell>
        <mxCell id="IAnXxCuGyKzDiA84Ap1S-249" value="" style="whiteSpace=wrap;html=1;aspect=fixed;" vertex="1" parent="1">
          <mxGeometry x="226" y="1541" width="47" height="47" as="geometry" />
        </mxCell>
        <mxCell id="IAnXxCuGyKzDiA84Ap1S-250" value="" style="whiteSpace=wrap;html=1;aspect=fixed;" vertex="1" parent="1">
          <mxGeometry x="38" y="1588" width="47" height="47" as="geometry" />
        </mxCell>
        <mxCell id="IAnXxCuGyKzDiA84Ap1S-251" value="PIT" style="whiteSpace=wrap;html=1;aspect=fixed;fontStyle=1" vertex="1" parent="1">
          <mxGeometry x="85" y="1588" width="47" height="47" as="geometry" />
        </mxCell>
        <mxCell id="IAnXxCuGyKzDiA84Ap1S-252" value="" style="whiteSpace=wrap;html=1;aspect=fixed;" vertex="1" parent="1">
          <mxGeometry x="132" y="1588" width="47" height="47" as="geometry" />
        </mxCell>
        <mxCell id="IAnXxCuGyKzDiA84Ap1S-253" value="&lt;b&gt;&lt;font color=&quot;#ff0000&quot;&gt;GOAL&lt;/font&gt;&lt;/b&gt;" style="whiteSpace=wrap;html=1;aspect=fixed;" vertex="1" parent="1">
          <mxGeometry x="179" y="1588" width="47" height="47" as="geometry" />
        </mxCell>
        <mxCell id="IAnXxCuGyKzDiA84Ap1S-254" value="" style="whiteSpace=wrap;html=1;aspect=fixed;" vertex="1" parent="1">
          <mxGeometry x="226" y="1588" width="47" height="47" as="geometry" />
        </mxCell>
        <mxCell id="IAnXxCuGyKzDiA84Ap1S-255" value="" style="whiteSpace=wrap;html=1;aspect=fixed;" vertex="1" parent="1">
          <mxGeometry x="38" y="1635" width="47" height="47" as="geometry" />
        </mxCell>
        <mxCell id="IAnXxCuGyKzDiA84Ap1S-256" value="" style="whiteSpace=wrap;html=1;aspect=fixed;" vertex="1" parent="1">
          <mxGeometry x="85" y="1635" width="47" height="47" as="geometry" />
        </mxCell>
        <mxCell id="IAnXxCuGyKzDiA84Ap1S-257" value="" style="whiteSpace=wrap;html=1;aspect=fixed;" vertex="1" parent="1">
          <mxGeometry x="132" y="1635" width="47" height="47" as="geometry" />
        </mxCell>
        <mxCell id="IAnXxCuGyKzDiA84Ap1S-258" value="" style="whiteSpace=wrap;html=1;aspect=fixed;" vertex="1" parent="1">
          <mxGeometry x="179" y="1635" width="47" height="47" as="geometry" />
        </mxCell>
        <mxCell id="IAnXxCuGyKzDiA84Ap1S-259" value="" style="whiteSpace=wrap;html=1;aspect=fixed;" vertex="1" parent="1">
          <mxGeometry x="226" y="1635" width="47" height="47" as="geometry" />
        </mxCell>
        <mxCell id="IAnXxCuGyKzDiA84Ap1S-260" value="" style="ellipse;whiteSpace=wrap;html=1;aspect=fixed;fillColor=#000000;" vertex="1" parent="1">
          <mxGeometry x="197.5" y="1620" width="10" height="10" as="geometry" />
        </mxCell>
        <mxCell id="IAnXxCuGyKzDiA84Ap1S-261" value="" style="endArrow=classic;html=1;rounded=0;strokeWidth=1;strokeColor=#0052D9;" edge="1" parent="1">
          <mxGeometry width="50" height="50" relative="1" as="geometry">
            <mxPoint x="-59" y="1547" as="sourcePoint" />
            <mxPoint x="-43" y="1547" as="targetPoint" />
          </mxGeometry>
        </mxCell>
        <mxCell id="IAnXxCuGyKzDiA84Ap1S-262" value="执行“向右走”这个动作，走到了终点状态，得到了奖励" style="text;html=1;strokeColor=none;fillColor=none;align=center;verticalAlign=middle;whiteSpace=wrap;rounded=0;" vertex="1" parent="1">
          <mxGeometry x="-107" y="1573" width="119.5" height="30" as="geometry" />
        </mxCell>
        <mxCell id="IAnXxCuGyKzDiA84Ap1S-263" value="START" style="whiteSpace=wrap;html=1;aspect=fixed;" vertex="1" parent="1">
          <mxGeometry x="685" y="938" width="47" height="47" as="geometry" />
        </mxCell>
        <mxCell id="IAnXxCuGyKzDiA84Ap1S-264" value="" style="whiteSpace=wrap;html=1;aspect=fixed;fillColor=#E6E6E6;" vertex="1" parent="1">
          <mxGeometry x="732" y="938" width="47" height="47" as="geometry" />
        </mxCell>
        <mxCell id="IAnXxCuGyKzDiA84Ap1S-265" value="" style="whiteSpace=wrap;html=1;aspect=fixed;" vertex="1" parent="1">
          <mxGeometry x="779" y="938" width="47" height="47" as="geometry" />
        </mxCell>
        <mxCell id="IAnXxCuGyKzDiA84Ap1S-266" value="" style="whiteSpace=wrap;html=1;aspect=fixed;" vertex="1" parent="1">
          <mxGeometry x="826" y="938" width="47" height="47" as="geometry" />
        </mxCell>
        <mxCell id="IAnXxCuGyKzDiA84Ap1S-267" value="" style="whiteSpace=wrap;html=1;aspect=fixed;" vertex="1" parent="1">
          <mxGeometry x="873" y="938" width="47" height="47" as="geometry" />
        </mxCell>
        <mxCell id="IAnXxCuGyKzDiA84Ap1S-268" value="" style="whiteSpace=wrap;html=1;aspect=fixed;" vertex="1" parent="1">
          <mxGeometry x="685" y="985" width="47" height="47" as="geometry" />
        </mxCell>
        <mxCell id="IAnXxCuGyKzDiA84Ap1S-269" value="" style="whiteSpace=wrap;html=1;aspect=fixed;fillColor=#CCCCCC;" vertex="1" parent="1">
          <mxGeometry x="732" y="985" width="47" height="47" as="geometry" />
        </mxCell>
        <mxCell id="IAnXxCuGyKzDiA84Ap1S-270" value="PIT" style="whiteSpace=wrap;html=1;aspect=fixed;fontStyle=1" vertex="1" parent="1">
          <mxGeometry x="779" y="985" width="47" height="47" as="geometry" />
        </mxCell>
        <mxCell id="IAnXxCuGyKzDiA84Ap1S-271" value="" style="whiteSpace=wrap;html=1;aspect=fixed;" vertex="1" parent="1">
          <mxGeometry x="826" y="985" width="47" height="47" as="geometry" />
        </mxCell>
        <mxCell id="IAnXxCuGyKzDiA84Ap1S-272" value="" style="whiteSpace=wrap;html=1;aspect=fixed;" vertex="1" parent="1">
          <mxGeometry x="873" y="985" width="47" height="47" as="geometry" />
        </mxCell>
        <mxCell id="IAnXxCuGyKzDiA84Ap1S-273" value="" style="whiteSpace=wrap;html=1;aspect=fixed;" vertex="1" parent="1">
          <mxGeometry x="685" y="1032" width="47" height="47" as="geometry" />
        </mxCell>
        <mxCell id="IAnXxCuGyKzDiA84Ap1S-274" value="" style="whiteSpace=wrap;html=1;aspect=fixed;fillColor=#B3B3B3;" vertex="1" parent="1">
          <mxGeometry x="732" y="1032" width="47" height="47" as="geometry" />
        </mxCell>
        <mxCell id="IAnXxCuGyKzDiA84Ap1S-275" value="" style="whiteSpace=wrap;html=1;aspect=fixed;fillColor=#999999;" vertex="1" parent="1">
          <mxGeometry x="779" y="1032" width="47" height="47" as="geometry" />
        </mxCell>
        <mxCell id="IAnXxCuGyKzDiA84Ap1S-276" value="" style="whiteSpace=wrap;html=1;aspect=fixed;" vertex="1" parent="1">
          <mxGeometry x="826" y="1032" width="47" height="47" as="geometry" />
        </mxCell>
        <mxCell id="IAnXxCuGyKzDiA84Ap1S-277" value="" style="whiteSpace=wrap;html=1;aspect=fixed;" vertex="1" parent="1">
          <mxGeometry x="873" y="1032" width="47" height="47" as="geometry" />
        </mxCell>
        <mxCell id="IAnXxCuGyKzDiA84Ap1S-278" value="" style="whiteSpace=wrap;html=1;aspect=fixed;" vertex="1" parent="1">
          <mxGeometry x="685" y="1079" width="47" height="47" as="geometry" />
        </mxCell>
        <mxCell id="IAnXxCuGyKzDiA84Ap1S-279" value="PIT" style="whiteSpace=wrap;html=1;aspect=fixed;fontStyle=1" vertex="1" parent="1">
          <mxGeometry x="732" y="1079" width="47" height="47" as="geometry" />
        </mxCell>
        <mxCell id="IAnXxCuGyKzDiA84Ap1S-280" value="" style="whiteSpace=wrap;html=1;aspect=fixed;fillColor=#808080;" vertex="1" parent="1">
          <mxGeometry x="779" y="1079" width="47" height="47" as="geometry" />
        </mxCell>
        <mxCell id="IAnXxCuGyKzDiA84Ap1S-281" value="&lt;b&gt;&lt;font color=&quot;#ff0000&quot;&gt;GOAL&lt;/font&gt;&lt;/b&gt;" style="whiteSpace=wrap;html=1;aspect=fixed;fillColor=#666666;" vertex="1" parent="1">
          <mxGeometry x="826" y="1079" width="47" height="47" as="geometry" />
        </mxCell>
        <mxCell id="IAnXxCuGyKzDiA84Ap1S-282" value="" style="whiteSpace=wrap;html=1;aspect=fixed;" vertex="1" parent="1">
          <mxGeometry x="873" y="1079" width="47" height="47" as="geometry" />
        </mxCell>
        <mxCell id="IAnXxCuGyKzDiA84Ap1S-283" value="" style="whiteSpace=wrap;html=1;aspect=fixed;" vertex="1" parent="1">
          <mxGeometry x="685" y="1126" width="47" height="47" as="geometry" />
        </mxCell>
        <mxCell id="IAnXxCuGyKzDiA84Ap1S-284" value="" style="whiteSpace=wrap;html=1;aspect=fixed;" vertex="1" parent="1">
          <mxGeometry x="732" y="1126" width="47" height="47" as="geometry" />
        </mxCell>
        <mxCell id="IAnXxCuGyKzDiA84Ap1S-285" value="" style="whiteSpace=wrap;html=1;aspect=fixed;" vertex="1" parent="1">
          <mxGeometry x="779" y="1126" width="47" height="47" as="geometry" />
        </mxCell>
        <mxCell id="IAnXxCuGyKzDiA84Ap1S-286" value="" style="whiteSpace=wrap;html=1;aspect=fixed;" vertex="1" parent="1">
          <mxGeometry x="826" y="1126" width="47" height="47" as="geometry" />
        </mxCell>
        <mxCell id="IAnXxCuGyKzDiA84Ap1S-287" value="" style="whiteSpace=wrap;html=1;aspect=fixed;" vertex="1" parent="1">
          <mxGeometry x="873" y="1126" width="47" height="47" as="geometry" />
        </mxCell>
        <mxCell id="IAnXxCuGyKzDiA84Ap1S-288" value="START" style="whiteSpace=wrap;html=1;aspect=fixed;" vertex="1" parent="1">
          <mxGeometry x="-383" y="1724" width="47" height="47" as="geometry" />
        </mxCell>
        <mxCell id="IAnXxCuGyKzDiA84Ap1S-289" value="" style="whiteSpace=wrap;html=1;aspect=fixed;" vertex="1" parent="1">
          <mxGeometry x="-336" y="1724" width="47" height="47" as="geometry" />
        </mxCell>
        <mxCell id="IAnXxCuGyKzDiA84Ap1S-290" value="" style="whiteSpace=wrap;html=1;aspect=fixed;" vertex="1" parent="1">
          <mxGeometry x="-289" y="1724" width="47" height="47" as="geometry" />
        </mxCell>
        <mxCell id="IAnXxCuGyKzDiA84Ap1S-291" value="" style="whiteSpace=wrap;html=1;aspect=fixed;" vertex="1" parent="1">
          <mxGeometry x="-242" y="1724" width="47" height="47" as="geometry" />
        </mxCell>
        <mxCell id="IAnXxCuGyKzDiA84Ap1S-292" value="" style="whiteSpace=wrap;html=1;aspect=fixed;" vertex="1" parent="1">
          <mxGeometry x="-195" y="1724" width="47" height="47" as="geometry" />
        </mxCell>
        <mxCell id="IAnXxCuGyKzDiA84Ap1S-293" value="" style="whiteSpace=wrap;html=1;aspect=fixed;" vertex="1" parent="1">
          <mxGeometry x="-383" y="1771" width="47" height="47" as="geometry" />
        </mxCell>
        <mxCell id="IAnXxCuGyKzDiA84Ap1S-294" value="" style="whiteSpace=wrap;html=1;aspect=fixed;" vertex="1" parent="1">
          <mxGeometry x="-336" y="1771" width="47" height="47" as="geometry" />
        </mxCell>
        <mxCell id="IAnXxCuGyKzDiA84Ap1S-295" value="PIT" style="whiteSpace=wrap;html=1;aspect=fixed;fontStyle=1" vertex="1" parent="1">
          <mxGeometry x="-289" y="1771" width="47" height="47" as="geometry" />
        </mxCell>
        <mxCell id="IAnXxCuGyKzDiA84Ap1S-296" value="" style="whiteSpace=wrap;html=1;aspect=fixed;" vertex="1" parent="1">
          <mxGeometry x="-242" y="1771" width="47" height="47" as="geometry" />
        </mxCell>
        <mxCell id="IAnXxCuGyKzDiA84Ap1S-297" value="" style="whiteSpace=wrap;html=1;aspect=fixed;" vertex="1" parent="1">
          <mxGeometry x="-195" y="1771" width="47" height="47" as="geometry" />
        </mxCell>
        <mxCell id="IAnXxCuGyKzDiA84Ap1S-298" value="" style="whiteSpace=wrap;html=1;aspect=fixed;" vertex="1" parent="1">
          <mxGeometry x="-383" y="1818" width="47" height="47" as="geometry" />
        </mxCell>
        <mxCell id="IAnXxCuGyKzDiA84Ap1S-299" value="" style="whiteSpace=wrap;html=1;aspect=fixed;" vertex="1" parent="1">
          <mxGeometry x="-336" y="1818" width="47" height="47" as="geometry" />
        </mxCell>
        <mxCell id="IAnXxCuGyKzDiA84Ap1S-300" value="" style="whiteSpace=wrap;html=1;aspect=fixed;" vertex="1" parent="1">
          <mxGeometry x="-289" y="1818" width="47" height="47" as="geometry" />
        </mxCell>
        <mxCell id="IAnXxCuGyKzDiA84Ap1S-301" value="" style="whiteSpace=wrap;html=1;aspect=fixed;" vertex="1" parent="1">
          <mxGeometry x="-242" y="1818" width="47" height="47" as="geometry" />
        </mxCell>
        <mxCell id="IAnXxCuGyKzDiA84Ap1S-302" value="" style="whiteSpace=wrap;html=1;aspect=fixed;" vertex="1" parent="1">
          <mxGeometry x="-195" y="1818" width="47" height="47" as="geometry" />
        </mxCell>
        <mxCell id="IAnXxCuGyKzDiA84Ap1S-303" value="" style="whiteSpace=wrap;html=1;aspect=fixed;" vertex="1" parent="1">
          <mxGeometry x="-383" y="1865" width="47" height="47" as="geometry" />
        </mxCell>
        <mxCell id="IAnXxCuGyKzDiA84Ap1S-304" value="PIT" style="whiteSpace=wrap;html=1;aspect=fixed;fontStyle=1" vertex="1" parent="1">
          <mxGeometry x="-336" y="1865" width="47" height="47" as="geometry" />
        </mxCell>
        <mxCell id="IAnXxCuGyKzDiA84Ap1S-305" value="" style="whiteSpace=wrap;html=1;aspect=fixed;" vertex="1" parent="1">
          <mxGeometry x="-289" y="1865" width="47" height="47" as="geometry" />
        </mxCell>
        <mxCell id="IAnXxCuGyKzDiA84Ap1S-306" value="&lt;b&gt;&lt;font color=&quot;#ff0000&quot;&gt;GOAL&lt;/font&gt;&lt;/b&gt;" style="whiteSpace=wrap;html=1;aspect=fixed;" vertex="1" parent="1">
          <mxGeometry x="-242" y="1865" width="47" height="47" as="geometry" />
        </mxCell>
        <mxCell id="IAnXxCuGyKzDiA84Ap1S-307" value="" style="whiteSpace=wrap;html=1;aspect=fixed;" vertex="1" parent="1">
          <mxGeometry x="-195" y="1865" width="47" height="47" as="geometry" />
        </mxCell>
        <mxCell id="IAnXxCuGyKzDiA84Ap1S-308" value="" style="whiteSpace=wrap;html=1;aspect=fixed;" vertex="1" parent="1">
          <mxGeometry x="-383" y="1912" width="47" height="47" as="geometry" />
        </mxCell>
        <mxCell id="IAnXxCuGyKzDiA84Ap1S-309" value="" style="whiteSpace=wrap;html=1;aspect=fixed;" vertex="1" parent="1">
          <mxGeometry x="-336" y="1912" width="47" height="47" as="geometry" />
        </mxCell>
        <mxCell id="IAnXxCuGyKzDiA84Ap1S-310" value="" style="whiteSpace=wrap;html=1;aspect=fixed;" vertex="1" parent="1">
          <mxGeometry x="-289" y="1912" width="47" height="47" as="geometry" />
        </mxCell>
        <mxCell id="IAnXxCuGyKzDiA84Ap1S-311" value="" style="whiteSpace=wrap;html=1;aspect=fixed;" vertex="1" parent="1">
          <mxGeometry x="-242" y="1912" width="47" height="47" as="geometry" />
        </mxCell>
        <mxCell id="IAnXxCuGyKzDiA84Ap1S-312" value="" style="whiteSpace=wrap;html=1;aspect=fixed;" vertex="1" parent="1">
          <mxGeometry x="-195" y="1912" width="47" height="47" as="geometry" />
        </mxCell>
        <mxCell id="IAnXxCuGyKzDiA84Ap1S-313" value="" style="ellipse;whiteSpace=wrap;html=1;aspect=fixed;fillColor=#000000;" vertex="1" parent="1">
          <mxGeometry x="-364.5" y="1757" width="10" height="10" as="geometry" />
        </mxCell>
        <mxCell id="IAnXxCuGyKzDiA84Ap1S-314" value="START" style="whiteSpace=wrap;html=1;aspect=fixed;" vertex="1" parent="1">
          <mxGeometry x="-135" y="1724" width="47" height="47" as="geometry" />
        </mxCell>
        <mxCell id="IAnXxCuGyKzDiA84Ap1S-315" value="" style="whiteSpace=wrap;html=1;aspect=fixed;" vertex="1" parent="1">
          <mxGeometry x="-88" y="1724" width="47" height="47" as="geometry" />
        </mxCell>
        <mxCell id="IAnXxCuGyKzDiA84Ap1S-316" value="" style="whiteSpace=wrap;html=1;aspect=fixed;" vertex="1" parent="1">
          <mxGeometry x="-41" y="1724" width="47" height="47" as="geometry" />
        </mxCell>
        <mxCell id="IAnXxCuGyKzDiA84Ap1S-317" value="" style="whiteSpace=wrap;html=1;aspect=fixed;" vertex="1" parent="1">
          <mxGeometry x="6" y="1724" width="47" height="47" as="geometry" />
        </mxCell>
        <mxCell id="IAnXxCuGyKzDiA84Ap1S-318" value="" style="whiteSpace=wrap;html=1;aspect=fixed;" vertex="1" parent="1">
          <mxGeometry x="53" y="1724" width="47" height="47" as="geometry" />
        </mxCell>
        <mxCell id="IAnXxCuGyKzDiA84Ap1S-319" value="" style="whiteSpace=wrap;html=1;aspect=fixed;" vertex="1" parent="1">
          <mxGeometry x="-135" y="1771" width="47" height="47" as="geometry" />
        </mxCell>
        <mxCell id="IAnXxCuGyKzDiA84Ap1S-320" value="" style="whiteSpace=wrap;html=1;aspect=fixed;" vertex="1" parent="1">
          <mxGeometry x="-88" y="1771" width="47" height="47" as="geometry" />
        </mxCell>
        <mxCell id="IAnXxCuGyKzDiA84Ap1S-321" value="PIT" style="whiteSpace=wrap;html=1;aspect=fixed;fontStyle=1" vertex="1" parent="1">
          <mxGeometry x="-41" y="1771" width="47" height="47" as="geometry" />
        </mxCell>
        <mxCell id="IAnXxCuGyKzDiA84Ap1S-322" value="" style="whiteSpace=wrap;html=1;aspect=fixed;" vertex="1" parent="1">
          <mxGeometry x="6" y="1771" width="47" height="47" as="geometry" />
        </mxCell>
        <mxCell id="IAnXxCuGyKzDiA84Ap1S-323" value="" style="whiteSpace=wrap;html=1;aspect=fixed;" vertex="1" parent="1">
          <mxGeometry x="53" y="1771" width="47" height="47" as="geometry" />
        </mxCell>
        <mxCell id="IAnXxCuGyKzDiA84Ap1S-324" value="" style="whiteSpace=wrap;html=1;aspect=fixed;" vertex="1" parent="1">
          <mxGeometry x="-135" y="1818" width="47" height="47" as="geometry" />
        </mxCell>
        <mxCell id="IAnXxCuGyKzDiA84Ap1S-325" value="" style="whiteSpace=wrap;html=1;aspect=fixed;" vertex="1" parent="1">
          <mxGeometry x="-88" y="1818" width="47" height="47" as="geometry" />
        </mxCell>
        <mxCell id="IAnXxCuGyKzDiA84Ap1S-326" value="" style="whiteSpace=wrap;html=1;aspect=fixed;" vertex="1" parent="1">
          <mxGeometry x="-41" y="1818" width="47" height="47" as="geometry" />
        </mxCell>
        <mxCell id="IAnXxCuGyKzDiA84Ap1S-327" value="" style="whiteSpace=wrap;html=1;aspect=fixed;" vertex="1" parent="1">
          <mxGeometry x="6" y="1818" width="47" height="47" as="geometry" />
        </mxCell>
        <mxCell id="IAnXxCuGyKzDiA84Ap1S-328" value="" style="whiteSpace=wrap;html=1;aspect=fixed;" vertex="1" parent="1">
          <mxGeometry x="53" y="1818" width="47" height="47" as="geometry" />
        </mxCell>
        <mxCell id="IAnXxCuGyKzDiA84Ap1S-329" value="" style="whiteSpace=wrap;html=1;aspect=fixed;" vertex="1" parent="1">
          <mxGeometry x="-135" y="1865" width="47" height="47" as="geometry" />
        </mxCell>
        <mxCell id="IAnXxCuGyKzDiA84Ap1S-330" value="PIT" style="whiteSpace=wrap;html=1;aspect=fixed;fontStyle=1" vertex="1" parent="1">
          <mxGeometry x="-88" y="1865" width="47" height="47" as="geometry" />
        </mxCell>
        <mxCell id="IAnXxCuGyKzDiA84Ap1S-331" value="" style="whiteSpace=wrap;html=1;aspect=fixed;" vertex="1" parent="1">
          <mxGeometry x="-41" y="1865" width="47" height="47" as="geometry" />
        </mxCell>
        <mxCell id="IAnXxCuGyKzDiA84Ap1S-332" value="&lt;b&gt;&lt;font color=&quot;#ff0000&quot;&gt;GOAL&lt;/font&gt;&lt;/b&gt;" style="whiteSpace=wrap;html=1;aspect=fixed;" vertex="1" parent="1">
          <mxGeometry x="6" y="1865" width="47" height="47" as="geometry" />
        </mxCell>
        <mxCell id="IAnXxCuGyKzDiA84Ap1S-333" value="" style="whiteSpace=wrap;html=1;aspect=fixed;" vertex="1" parent="1">
          <mxGeometry x="53" y="1865" width="47" height="47" as="geometry" />
        </mxCell>
        <mxCell id="IAnXxCuGyKzDiA84Ap1S-334" value="" style="whiteSpace=wrap;html=1;aspect=fixed;" vertex="1" parent="1">
          <mxGeometry x="-135" y="1912" width="47" height="47" as="geometry" />
        </mxCell>
        <mxCell id="IAnXxCuGyKzDiA84Ap1S-335" value="" style="whiteSpace=wrap;html=1;aspect=fixed;" vertex="1" parent="1">
          <mxGeometry x="-88" y="1912" width="47" height="47" as="geometry" />
        </mxCell>
        <mxCell id="IAnXxCuGyKzDiA84Ap1S-336" value="" style="whiteSpace=wrap;html=1;aspect=fixed;" vertex="1" parent="1">
          <mxGeometry x="-41" y="1912" width="47" height="47" as="geometry" />
        </mxCell>
        <mxCell id="IAnXxCuGyKzDiA84Ap1S-337" value="" style="whiteSpace=wrap;html=1;aspect=fixed;" vertex="1" parent="1">
          <mxGeometry x="6" y="1912" width="47" height="47" as="geometry" />
        </mxCell>
        <mxCell id="IAnXxCuGyKzDiA84Ap1S-338" value="" style="whiteSpace=wrap;html=1;aspect=fixed;" vertex="1" parent="1">
          <mxGeometry x="53" y="1912" width="47" height="47" as="geometry" />
        </mxCell>
        <mxCell id="IAnXxCuGyKzDiA84Ap1S-339" value="" style="ellipse;whiteSpace=wrap;html=1;aspect=fixed;fillColor=#000000;" vertex="1" parent="1">
          <mxGeometry x="-22.5" y="1840" width="10" height="10" as="geometry" />
        </mxCell>
        <mxCell id="IAnXxCuGyKzDiA84Ap1S-341" value="START" style="whiteSpace=wrap;html=1;aspect=fixed;" vertex="1" parent="1">
          <mxGeometry x="110.5" y="1724" width="47" height="47" as="geometry" />
        </mxCell>
        <mxCell id="IAnXxCuGyKzDiA84Ap1S-342" value="" style="whiteSpace=wrap;html=1;aspect=fixed;" vertex="1" parent="1">
          <mxGeometry x="157.5" y="1724" width="47" height="47" as="geometry" />
        </mxCell>
        <mxCell id="IAnXxCuGyKzDiA84Ap1S-343" value="" style="whiteSpace=wrap;html=1;aspect=fixed;" vertex="1" parent="1">
          <mxGeometry x="204.5" y="1724" width="47" height="47" as="geometry" />
        </mxCell>
        <mxCell id="IAnXxCuGyKzDiA84Ap1S-344" value="" style="whiteSpace=wrap;html=1;aspect=fixed;" vertex="1" parent="1">
          <mxGeometry x="251.5" y="1724" width="47" height="47" as="geometry" />
        </mxCell>
        <mxCell id="IAnXxCuGyKzDiA84Ap1S-345" value="" style="whiteSpace=wrap;html=1;aspect=fixed;" vertex="1" parent="1">
          <mxGeometry x="298.5" y="1724" width="47" height="47" as="geometry" />
        </mxCell>
        <mxCell id="IAnXxCuGyKzDiA84Ap1S-346" value="" style="whiteSpace=wrap;html=1;aspect=fixed;" vertex="1" parent="1">
          <mxGeometry x="110.5" y="1771" width="47" height="47" as="geometry" />
        </mxCell>
        <mxCell id="IAnXxCuGyKzDiA84Ap1S-347" value="" style="whiteSpace=wrap;html=1;aspect=fixed;" vertex="1" parent="1">
          <mxGeometry x="157.5" y="1771" width="47" height="47" as="geometry" />
        </mxCell>
        <mxCell id="IAnXxCuGyKzDiA84Ap1S-348" value="PIT" style="whiteSpace=wrap;html=1;aspect=fixed;fontStyle=1" vertex="1" parent="1">
          <mxGeometry x="204.5" y="1771" width="47" height="47" as="geometry" />
        </mxCell>
        <mxCell id="IAnXxCuGyKzDiA84Ap1S-349" value="" style="whiteSpace=wrap;html=1;aspect=fixed;" vertex="1" parent="1">
          <mxGeometry x="251.5" y="1771" width="47" height="47" as="geometry" />
        </mxCell>
        <mxCell id="IAnXxCuGyKzDiA84Ap1S-350" value="" style="whiteSpace=wrap;html=1;aspect=fixed;" vertex="1" parent="1">
          <mxGeometry x="298.5" y="1771" width="47" height="47" as="geometry" />
        </mxCell>
        <mxCell id="IAnXxCuGyKzDiA84Ap1S-351" value="" style="whiteSpace=wrap;html=1;aspect=fixed;" vertex="1" parent="1">
          <mxGeometry x="110.5" y="1818" width="47" height="47" as="geometry" />
        </mxCell>
        <mxCell id="IAnXxCuGyKzDiA84Ap1S-352" value="" style="whiteSpace=wrap;html=1;aspect=fixed;" vertex="1" parent="1">
          <mxGeometry x="157.5" y="1818" width="47" height="47" as="geometry" />
        </mxCell>
        <mxCell id="IAnXxCuGyKzDiA84Ap1S-353" value="" style="whiteSpace=wrap;html=1;aspect=fixed;" vertex="1" parent="1">
          <mxGeometry x="204.5" y="1818" width="47" height="47" as="geometry" />
        </mxCell>
        <mxCell id="IAnXxCuGyKzDiA84Ap1S-354" value="" style="whiteSpace=wrap;html=1;aspect=fixed;" vertex="1" parent="1">
          <mxGeometry x="251.5" y="1818" width="47" height="47" as="geometry" />
        </mxCell>
        <mxCell id="IAnXxCuGyKzDiA84Ap1S-355" value="" style="whiteSpace=wrap;html=1;aspect=fixed;" vertex="1" parent="1">
          <mxGeometry x="298.5" y="1818" width="47" height="47" as="geometry" />
        </mxCell>
        <mxCell id="IAnXxCuGyKzDiA84Ap1S-356" value="" style="whiteSpace=wrap;html=1;aspect=fixed;" vertex="1" parent="1">
          <mxGeometry x="110.5" y="1865" width="47" height="47" as="geometry" />
        </mxCell>
        <mxCell id="IAnXxCuGyKzDiA84Ap1S-357" value="PIT" style="whiteSpace=wrap;html=1;aspect=fixed;fontStyle=1" vertex="1" parent="1">
          <mxGeometry x="157.5" y="1865" width="47" height="47" as="geometry" />
        </mxCell>
        <mxCell id="IAnXxCuGyKzDiA84Ap1S-358" value="" style="whiteSpace=wrap;html=1;aspect=fixed;" vertex="1" parent="1">
          <mxGeometry x="204.5" y="1865" width="47" height="47" as="geometry" />
        </mxCell>
        <mxCell id="IAnXxCuGyKzDiA84Ap1S-359" value="&lt;b&gt;&lt;font color=&quot;#ff0000&quot;&gt;GOAL&lt;/font&gt;&lt;/b&gt;" style="whiteSpace=wrap;html=1;aspect=fixed;" vertex="1" parent="1">
          <mxGeometry x="251.5" y="1865" width="47" height="47" as="geometry" />
        </mxCell>
        <mxCell id="IAnXxCuGyKzDiA84Ap1S-360" value="" style="whiteSpace=wrap;html=1;aspect=fixed;" vertex="1" parent="1">
          <mxGeometry x="298.5" y="1865" width="47" height="47" as="geometry" />
        </mxCell>
        <mxCell id="IAnXxCuGyKzDiA84Ap1S-361" value="" style="whiteSpace=wrap;html=1;aspect=fixed;" vertex="1" parent="1">
          <mxGeometry x="110.5" y="1912" width="47" height="47" as="geometry" />
        </mxCell>
        <mxCell id="IAnXxCuGyKzDiA84Ap1S-362" value="" style="whiteSpace=wrap;html=1;aspect=fixed;" vertex="1" parent="1">
          <mxGeometry x="157.5" y="1912" width="47" height="47" as="geometry" />
        </mxCell>
        <mxCell id="IAnXxCuGyKzDiA84Ap1S-363" value="" style="whiteSpace=wrap;html=1;aspect=fixed;" vertex="1" parent="1">
          <mxGeometry x="204.5" y="1912" width="47" height="47" as="geometry" />
        </mxCell>
        <mxCell id="IAnXxCuGyKzDiA84Ap1S-364" value="" style="whiteSpace=wrap;html=1;aspect=fixed;" vertex="1" parent="1">
          <mxGeometry x="251.5" y="1912" width="47" height="47" as="geometry" />
        </mxCell>
        <mxCell id="IAnXxCuGyKzDiA84Ap1S-365" value="" style="whiteSpace=wrap;html=1;aspect=fixed;" vertex="1" parent="1">
          <mxGeometry x="298.5" y="1912" width="47" height="47" as="geometry" />
        </mxCell>
        <mxCell id="IAnXxCuGyKzDiA84Ap1S-366" value="" style="ellipse;whiteSpace=wrap;html=1;aspect=fixed;fillColor=#000000;" vertex="1" parent="1">
          <mxGeometry x="270" y="1898" width="10" height="10" as="geometry" />
        </mxCell>
        <mxCell id="IAnXxCuGyKzDiA84Ap1S-367" value="状态 s&lt;sub&gt;3&lt;/sub&gt;：v(s&lt;sub&gt;3&lt;/sub&gt;) = 10" style="text;html=1;strokeColor=none;fillColor=none;align=center;verticalAlign=middle;whiteSpace=wrap;rounded=0;" vertex="1" parent="1">
          <mxGeometry x="168.25" y="1967" width="119.5" height="30" as="geometry" />
        </mxCell>
        <mxCell id="IAnXxCuGyKzDiA84Ap1S-368" value="状态 s&lt;sub&gt;2&lt;/sub&gt;：v(s&lt;sub&gt;2&lt;/sub&gt;) = 7" style="text;html=1;strokeColor=none;fillColor=none;align=center;verticalAlign=middle;whiteSpace=wrap;rounded=0;" vertex="1" parent="1">
          <mxGeometry x="-77.25" y="1967" width="119.5" height="30" as="geometry" />
        </mxCell>
        <mxCell id="IAnXxCuGyKzDiA84Ap1S-369" value="状态 s&lt;sub&gt;1&lt;/sub&gt;：v(s&lt;sub&gt;1&lt;/sub&gt;) = 0" style="text;html=1;strokeColor=none;fillColor=none;align=center;verticalAlign=middle;whiteSpace=wrap;rounded=0;" vertex="1" parent="1">
          <mxGeometry x="-325.25" y="1967" width="119.5" height="30" as="geometry" />
        </mxCell>
        <mxCell id="IAnXxCuGyKzDiA84Ap1S-370" value="START" style="whiteSpace=wrap;html=1;aspect=fixed;" vertex="1" parent="1">
          <mxGeometry x="-19" y="2084" width="47" height="47" as="geometry" />
        </mxCell>
        <mxCell id="IAnXxCuGyKzDiA84Ap1S-371" value="" style="whiteSpace=wrap;html=1;aspect=fixed;" vertex="1" parent="1">
          <mxGeometry x="28" y="2084" width="47" height="47" as="geometry" />
        </mxCell>
        <mxCell id="IAnXxCuGyKzDiA84Ap1S-372" value="" style="whiteSpace=wrap;html=1;aspect=fixed;" vertex="1" parent="1">
          <mxGeometry x="75" y="2084" width="47" height="47" as="geometry" />
        </mxCell>
        <mxCell id="IAnXxCuGyKzDiA84Ap1S-373" value="" style="whiteSpace=wrap;html=1;aspect=fixed;" vertex="1" parent="1">
          <mxGeometry x="122" y="2084" width="47" height="47" as="geometry" />
        </mxCell>
        <mxCell id="IAnXxCuGyKzDiA84Ap1S-374" value="" style="whiteSpace=wrap;html=1;aspect=fixed;" vertex="1" parent="1">
          <mxGeometry x="169" y="2084" width="47" height="47" as="geometry" />
        </mxCell>
        <mxCell id="IAnXxCuGyKzDiA84Ap1S-375" value="" style="whiteSpace=wrap;html=1;aspect=fixed;" vertex="1" parent="1">
          <mxGeometry x="-19" y="2131" width="47" height="47" as="geometry" />
        </mxCell>
        <mxCell id="IAnXxCuGyKzDiA84Ap1S-376" value="" style="whiteSpace=wrap;html=1;aspect=fixed;" vertex="1" parent="1">
          <mxGeometry x="28" y="2131" width="47" height="47" as="geometry" />
        </mxCell>
        <mxCell id="IAnXxCuGyKzDiA84Ap1S-377" value="PIT" style="whiteSpace=wrap;html=1;aspect=fixed;fontStyle=1" vertex="1" parent="1">
          <mxGeometry x="75" y="2131" width="47" height="47" as="geometry" />
        </mxCell>
        <mxCell id="IAnXxCuGyKzDiA84Ap1S-378" value="" style="whiteSpace=wrap;html=1;aspect=fixed;" vertex="1" parent="1">
          <mxGeometry x="122" y="2131" width="47" height="47" as="geometry" />
        </mxCell>
        <mxCell id="IAnXxCuGyKzDiA84Ap1S-379" value="" style="whiteSpace=wrap;html=1;aspect=fixed;" vertex="1" parent="1">
          <mxGeometry x="169" y="2131" width="47" height="47" as="geometry" />
        </mxCell>
        <mxCell id="IAnXxCuGyKzDiA84Ap1S-380" value="" style="whiteSpace=wrap;html=1;aspect=fixed;" vertex="1" parent="1">
          <mxGeometry x="-19" y="2178" width="47" height="47" as="geometry" />
        </mxCell>
        <mxCell id="IAnXxCuGyKzDiA84Ap1S-381" value="" style="whiteSpace=wrap;html=1;aspect=fixed;" vertex="1" parent="1">
          <mxGeometry x="28" y="2178" width="47" height="47" as="geometry" />
        </mxCell>
        <mxCell id="IAnXxCuGyKzDiA84Ap1S-382" value="" style="whiteSpace=wrap;html=1;aspect=fixed;" vertex="1" parent="1">
          <mxGeometry x="75" y="2178" width="47" height="47" as="geometry" />
        </mxCell>
        <mxCell id="IAnXxCuGyKzDiA84Ap1S-383" value="" style="whiteSpace=wrap;html=1;aspect=fixed;" vertex="1" parent="1">
          <mxGeometry x="122" y="2178" width="47" height="47" as="geometry" />
        </mxCell>
        <mxCell id="IAnXxCuGyKzDiA84Ap1S-384" value="" style="whiteSpace=wrap;html=1;aspect=fixed;" vertex="1" parent="1">
          <mxGeometry x="169" y="2178" width="47" height="47" as="geometry" />
        </mxCell>
        <mxCell id="IAnXxCuGyKzDiA84Ap1S-385" value="" style="whiteSpace=wrap;html=1;aspect=fixed;" vertex="1" parent="1">
          <mxGeometry x="-19" y="2225" width="47" height="47" as="geometry" />
        </mxCell>
        <mxCell id="IAnXxCuGyKzDiA84Ap1S-386" value="PIT" style="whiteSpace=wrap;html=1;aspect=fixed;fontStyle=1" vertex="1" parent="1">
          <mxGeometry x="28" y="2225" width="47" height="47" as="geometry" />
        </mxCell>
        <mxCell id="IAnXxCuGyKzDiA84Ap1S-387" value="" style="whiteSpace=wrap;html=1;aspect=fixed;" vertex="1" parent="1">
          <mxGeometry x="75" y="2225" width="47" height="47" as="geometry" />
        </mxCell>
        <mxCell id="IAnXxCuGyKzDiA84Ap1S-388" value="&lt;b&gt;&lt;font color=&quot;#ff0000&quot;&gt;GOAL&lt;/font&gt;&lt;/b&gt;" style="whiteSpace=wrap;html=1;aspect=fixed;" vertex="1" parent="1">
          <mxGeometry x="122" y="2225" width="47" height="47" as="geometry" />
        </mxCell>
        <mxCell id="IAnXxCuGyKzDiA84Ap1S-389" value="" style="whiteSpace=wrap;html=1;aspect=fixed;" vertex="1" parent="1">
          <mxGeometry x="169" y="2225" width="47" height="47" as="geometry" />
        </mxCell>
        <mxCell id="IAnXxCuGyKzDiA84Ap1S-390" value="" style="whiteSpace=wrap;html=1;aspect=fixed;" vertex="1" parent="1">
          <mxGeometry x="-19" y="2272" width="47" height="47" as="geometry" />
        </mxCell>
        <mxCell id="IAnXxCuGyKzDiA84Ap1S-391" value="" style="whiteSpace=wrap;html=1;aspect=fixed;" vertex="1" parent="1">
          <mxGeometry x="28" y="2272" width="47" height="47" as="geometry" />
        </mxCell>
        <mxCell id="IAnXxCuGyKzDiA84Ap1S-392" value="" style="whiteSpace=wrap;html=1;aspect=fixed;" vertex="1" parent="1">
          <mxGeometry x="75" y="2272" width="47" height="47" as="geometry" />
        </mxCell>
        <mxCell id="IAnXxCuGyKzDiA84Ap1S-393" value="" style="whiteSpace=wrap;html=1;aspect=fixed;" vertex="1" parent="1">
          <mxGeometry x="122" y="2272" width="47" height="47" as="geometry" />
        </mxCell>
        <mxCell id="IAnXxCuGyKzDiA84Ap1S-394" value="" style="whiteSpace=wrap;html=1;aspect=fixed;" vertex="1" parent="1">
          <mxGeometry x="169" y="2272" width="47" height="47" as="geometry" />
        </mxCell>
        <mxCell id="IAnXxCuGyKzDiA84Ap1S-395" value="" style="ellipse;whiteSpace=wrap;html=1;aspect=fixed;fillColor=#000000;" vertex="1" parent="1">
          <mxGeometry x="93.5" y="2196.5" width="10" height="10" as="geometry" />
        </mxCell>
        <mxCell id="IAnXxCuGyKzDiA84Ap1S-412" value="" style="group" vertex="1" connectable="0" parent="1">
          <mxGeometry x="76" y="2181" width="44" height="41.5" as="geometry" />
        </mxCell>
        <mxCell id="IAnXxCuGyKzDiA84Ap1S-413" value="" style="endArrow=classic;html=1;rounded=0;strokeWidth=1;strokeColor=#0052D9;" edge="1" parent="IAnXxCuGyKzDiA84Ap1S-412">
          <mxGeometry width="50" height="50" relative="1" as="geometry">
            <mxPoint x="22" y="16" as="sourcePoint" />
            <mxPoint x="22" as="targetPoint" />
          </mxGeometry>
        </mxCell>
        <mxCell id="IAnXxCuGyKzDiA84Ap1S-414" value="" style="endArrow=classic;html=1;rounded=0;strokeWidth=1;strokeColor=#0052D9;" edge="1" parent="IAnXxCuGyKzDiA84Ap1S-412">
          <mxGeometry width="50" height="50" relative="1" as="geometry">
            <mxPoint x="22" y="25.5" as="sourcePoint" />
            <mxPoint x="22" y="41.5" as="targetPoint" />
          </mxGeometry>
        </mxCell>
        <mxCell id="IAnXxCuGyKzDiA84Ap1S-415" value="" style="endArrow=classic;html=1;rounded=0;strokeWidth=1;strokeColor=#0052D9;" edge="1" parent="IAnXxCuGyKzDiA84Ap1S-412">
          <mxGeometry width="50" height="50" relative="1" as="geometry">
            <mxPoint x="28" y="21" as="sourcePoint" />
            <mxPoint x="44" y="21" as="targetPoint" />
          </mxGeometry>
        </mxCell>
        <mxCell id="IAnXxCuGyKzDiA84Ap1S-416" value="" style="endArrow=classic;html=1;rounded=0;strokeWidth=1;strokeColor=#0052D9;" edge="1" parent="IAnXxCuGyKzDiA84Ap1S-412">
          <mxGeometry width="50" height="50" relative="1" as="geometry">
            <mxPoint x="16" y="21" as="sourcePoint" />
            <mxPoint y="21" as="targetPoint" />
          </mxGeometry>
        </mxCell>
        <mxCell id="IAnXxCuGyKzDiA84Ap1S-417" value="&lt;b&gt;&lt;font color=&quot;#0052d9&quot;&gt;0.4&lt;/font&gt;&lt;/b&gt;" style="text;html=1;strokeColor=none;fillColor=none;align=center;verticalAlign=middle;whiteSpace=wrap;rounded=0;" vertex="1" parent="1">
          <mxGeometry x="120" y="2189" width="33" height="25" as="geometry" />
        </mxCell>
        <mxCell id="IAnXxCuGyKzDiA84Ap1S-418" value="&lt;b&gt;&lt;font color=&quot;#0052d9&quot;&gt;0.4&lt;/font&gt;&lt;/b&gt;" style="text;html=1;strokeColor=none;fillColor=none;align=center;verticalAlign=middle;whiteSpace=wrap;rounded=0;" vertex="1" parent="1">
          <mxGeometry x="82" y="2222.5" width="33" height="25" as="geometry" />
        </mxCell>
        <mxCell id="IAnXxCuGyKzDiA84Ap1S-419" value="&lt;b&gt;&lt;font color=&quot;#0052d9&quot;&gt;0.18&lt;/font&gt;&lt;/b&gt;" style="text;html=1;strokeColor=none;fillColor=none;align=center;verticalAlign=middle;whiteSpace=wrap;rounded=0;" vertex="1" parent="1">
          <mxGeometry x="43" y="2189" width="33" height="25" as="geometry" />
        </mxCell>
        <mxCell id="IAnXxCuGyKzDiA84Ap1S-420" value="&lt;b&gt;&lt;font color=&quot;#0052d9&quot;&gt;0.02&lt;/font&gt;&lt;/b&gt;" style="text;html=1;strokeColor=none;fillColor=none;align=center;verticalAlign=middle;whiteSpace=wrap;rounded=0;" vertex="1" parent="1">
          <mxGeometry x="81.5" y="2156" width="33" height="25" as="geometry" />
        </mxCell>
        <mxCell id="IAnXxCuGyKzDiA84Ap1S-421" value="START" style="whiteSpace=wrap;html=1;aspect=fixed;" vertex="1" parent="1">
          <mxGeometry x="1121" y="1859" width="47" height="47" as="geometry" />
        </mxCell>
        <mxCell id="IAnXxCuGyKzDiA84Ap1S-422" value="" style="whiteSpace=wrap;html=1;aspect=fixed;" vertex="1" parent="1">
          <mxGeometry x="1168" y="1859" width="47" height="47" as="geometry" />
        </mxCell>
        <mxCell id="IAnXxCuGyKzDiA84Ap1S-423" value="" style="whiteSpace=wrap;html=1;aspect=fixed;" vertex="1" parent="1">
          <mxGeometry x="1215" y="1859" width="47" height="47" as="geometry" />
        </mxCell>
        <mxCell id="IAnXxCuGyKzDiA84Ap1S-424" value="" style="whiteSpace=wrap;html=1;aspect=fixed;" vertex="1" parent="1">
          <mxGeometry x="1262" y="1859" width="47" height="47" as="geometry" />
        </mxCell>
        <mxCell id="IAnXxCuGyKzDiA84Ap1S-425" value="" style="whiteSpace=wrap;html=1;aspect=fixed;" vertex="1" parent="1">
          <mxGeometry x="1309" y="1859" width="47" height="47" as="geometry" />
        </mxCell>
        <mxCell id="IAnXxCuGyKzDiA84Ap1S-426" value="" style="whiteSpace=wrap;html=1;aspect=fixed;" vertex="1" parent="1">
          <mxGeometry x="1121" y="1906" width="47" height="47" as="geometry" />
        </mxCell>
        <mxCell id="IAnXxCuGyKzDiA84Ap1S-427" value="" style="whiteSpace=wrap;html=1;aspect=fixed;" vertex="1" parent="1">
          <mxGeometry x="1168" y="1906" width="47" height="47" as="geometry" />
        </mxCell>
        <mxCell id="IAnXxCuGyKzDiA84Ap1S-428" value="" style="whiteSpace=wrap;html=1;aspect=fixed;fontStyle=1" vertex="1" parent="1">
          <mxGeometry x="1215" y="1906" width="47" height="47" as="geometry" />
        </mxCell>
        <mxCell id="IAnXxCuGyKzDiA84Ap1S-429" value="" style="whiteSpace=wrap;html=1;aspect=fixed;" vertex="1" parent="1">
          <mxGeometry x="1262" y="1906" width="47" height="47" as="geometry" />
        </mxCell>
        <mxCell id="IAnXxCuGyKzDiA84Ap1S-430" value="" style="whiteSpace=wrap;html=1;aspect=fixed;" vertex="1" parent="1">
          <mxGeometry x="1309" y="1906" width="47" height="47" as="geometry" />
        </mxCell>
        <mxCell id="IAnXxCuGyKzDiA84Ap1S-431" value="" style="whiteSpace=wrap;html=1;aspect=fixed;" vertex="1" parent="1">
          <mxGeometry x="1121" y="1953" width="47" height="47" as="geometry" />
        </mxCell>
        <mxCell id="IAnXxCuGyKzDiA84Ap1S-432" value="" style="whiteSpace=wrap;html=1;aspect=fixed;" vertex="1" parent="1">
          <mxGeometry x="1168" y="1953" width="47" height="47" as="geometry" />
        </mxCell>
        <mxCell id="IAnXxCuGyKzDiA84Ap1S-433" value="" style="whiteSpace=wrap;html=1;aspect=fixed;" vertex="1" parent="1">
          <mxGeometry x="1215" y="1953" width="47" height="47" as="geometry" />
        </mxCell>
        <mxCell id="IAnXxCuGyKzDiA84Ap1S-434" value="" style="whiteSpace=wrap;html=1;aspect=fixed;" vertex="1" parent="1">
          <mxGeometry x="1262" y="1953" width="47" height="47" as="geometry" />
        </mxCell>
        <mxCell id="IAnXxCuGyKzDiA84Ap1S-560" style="edgeStyle=orthogonalEdgeStyle;rounded=0;orthogonalLoop=1;jettySize=auto;html=1;" edge="1" parent="1" source="IAnXxCuGyKzDiA84Ap1S-435" target="IAnXxCuGyKzDiA84Ap1S-556">
          <mxGeometry relative="1" as="geometry" />
        </mxCell>
        <mxCell id="IAnXxCuGyKzDiA84Ap1S-435" value="" style="whiteSpace=wrap;html=1;aspect=fixed;" vertex="1" parent="1">
          <mxGeometry x="1309" y="1953" width="47" height="47" as="geometry" />
        </mxCell>
        <mxCell id="IAnXxCuGyKzDiA84Ap1S-436" value="" style="whiteSpace=wrap;html=1;aspect=fixed;" vertex="1" parent="1">
          <mxGeometry x="1121" y="2000" width="47" height="47" as="geometry" />
        </mxCell>
        <mxCell id="IAnXxCuGyKzDiA84Ap1S-437" value="" style="whiteSpace=wrap;html=1;aspect=fixed;fontStyle=1" vertex="1" parent="1">
          <mxGeometry x="1168" y="2000" width="47" height="47" as="geometry" />
        </mxCell>
        <mxCell id="IAnXxCuGyKzDiA84Ap1S-438" value="" style="whiteSpace=wrap;html=1;aspect=fixed;" vertex="1" parent="1">
          <mxGeometry x="1215" y="2000" width="47" height="47" as="geometry" />
        </mxCell>
        <mxCell id="IAnXxCuGyKzDiA84Ap1S-439" value="" style="whiteSpace=wrap;html=1;aspect=fixed;" vertex="1" parent="1">
          <mxGeometry x="1262" y="2000" width="47" height="47" as="geometry" />
        </mxCell>
        <mxCell id="IAnXxCuGyKzDiA84Ap1S-440" value="" style="whiteSpace=wrap;html=1;aspect=fixed;" vertex="1" parent="1">
          <mxGeometry x="1309" y="2000" width="47" height="47" as="geometry" />
        </mxCell>
        <mxCell id="IAnXxCuGyKzDiA84Ap1S-441" value="" style="whiteSpace=wrap;html=1;aspect=fixed;" vertex="1" parent="1">
          <mxGeometry x="1121" y="2047" width="47" height="47" as="geometry" />
        </mxCell>
        <mxCell id="IAnXxCuGyKzDiA84Ap1S-442" value="" style="whiteSpace=wrap;html=1;aspect=fixed;" vertex="1" parent="1">
          <mxGeometry x="1168" y="2047" width="47" height="47" as="geometry" />
        </mxCell>
        <mxCell id="IAnXxCuGyKzDiA84Ap1S-443" value="" style="whiteSpace=wrap;html=1;aspect=fixed;" vertex="1" parent="1">
          <mxGeometry x="1215" y="2047" width="47" height="47" as="geometry" />
        </mxCell>
        <mxCell id="IAnXxCuGyKzDiA84Ap1S-444" value="" style="whiteSpace=wrap;html=1;aspect=fixed;" vertex="1" parent="1">
          <mxGeometry x="1262" y="2047" width="47" height="47" as="geometry" />
        </mxCell>
        <mxCell id="IAnXxCuGyKzDiA84Ap1S-445" value="" style="whiteSpace=wrap;html=1;aspect=fixed;" vertex="1" parent="1">
          <mxGeometry x="1309" y="2047" width="47" height="47" as="geometry" />
        </mxCell>
        <mxCell id="IAnXxCuGyKzDiA84Ap1S-447" value="" style="whiteSpace=wrap;html=1;aspect=fixed;" vertex="1" parent="1">
          <mxGeometry x="1121" y="2116.75" width="47" height="47" as="geometry" />
        </mxCell>
        <mxCell id="IAnXxCuGyKzDiA84Ap1S-448" value="" style="whiteSpace=wrap;html=1;aspect=fixed;" vertex="1" parent="1">
          <mxGeometry x="1168" y="2116.75" width="47" height="47" as="geometry" />
        </mxCell>
        <mxCell id="IAnXxCuGyKzDiA84Ap1S-449" value="" style="whiteSpace=wrap;html=1;aspect=fixed;" vertex="1" parent="1">
          <mxGeometry x="1215" y="2116.75" width="47" height="47" as="geometry" />
        </mxCell>
        <mxCell id="IAnXxCuGyKzDiA84Ap1S-450" value="" style="whiteSpace=wrap;html=1;aspect=fixed;" vertex="1" parent="1">
          <mxGeometry x="1262" y="2116.75" width="47" height="47" as="geometry" />
        </mxCell>
        <mxCell id="IAnXxCuGyKzDiA84Ap1S-451" value="" style="whiteSpace=wrap;html=1;aspect=fixed;" vertex="1" parent="1">
          <mxGeometry x="1309" y="2116.75" width="47" height="47" as="geometry" />
        </mxCell>
        <mxCell id="IAnXxCuGyKzDiA84Ap1S-452" value="" style="whiteSpace=wrap;html=1;aspect=fixed;" vertex="1" parent="1">
          <mxGeometry x="1121" y="2163.75" width="47" height="47" as="geometry" />
        </mxCell>
        <mxCell id="IAnXxCuGyKzDiA84Ap1S-453" value="" style="whiteSpace=wrap;html=1;aspect=fixed;" vertex="1" parent="1">
          <mxGeometry x="1168" y="2163.75" width="47" height="47" as="geometry" />
        </mxCell>
        <mxCell id="IAnXxCuGyKzDiA84Ap1S-454" value="PIT" style="whiteSpace=wrap;html=1;aspect=fixed;fontStyle=1" vertex="1" parent="1">
          <mxGeometry x="1215" y="2163.75" width="47" height="47" as="geometry" />
        </mxCell>
        <mxCell id="IAnXxCuGyKzDiA84Ap1S-455" value="" style="whiteSpace=wrap;html=1;aspect=fixed;" vertex="1" parent="1">
          <mxGeometry x="1262" y="2163.75" width="47" height="47" as="geometry" />
        </mxCell>
        <mxCell id="IAnXxCuGyKzDiA84Ap1S-456" value="" style="whiteSpace=wrap;html=1;aspect=fixed;" vertex="1" parent="1">
          <mxGeometry x="1309" y="2163.75" width="47" height="47" as="geometry" />
        </mxCell>
        <mxCell id="IAnXxCuGyKzDiA84Ap1S-457" value="" style="whiteSpace=wrap;html=1;aspect=fixed;" vertex="1" parent="1">
          <mxGeometry x="1121" y="2210.75" width="47" height="47" as="geometry" />
        </mxCell>
        <mxCell id="IAnXxCuGyKzDiA84Ap1S-458" value="" style="whiteSpace=wrap;html=1;aspect=fixed;" vertex="1" parent="1">
          <mxGeometry x="1168" y="2210.75" width="47" height="47" as="geometry" />
        </mxCell>
        <mxCell id="IAnXxCuGyKzDiA84Ap1S-459" value="" style="whiteSpace=wrap;html=1;aspect=fixed;" vertex="1" parent="1">
          <mxGeometry x="1215" y="2210.75" width="47" height="47" as="geometry" />
        </mxCell>
        <mxCell id="IAnXxCuGyKzDiA84Ap1S-460" value="" style="whiteSpace=wrap;html=1;aspect=fixed;" vertex="1" parent="1">
          <mxGeometry x="1262" y="2210.75" width="47" height="47" as="geometry" />
        </mxCell>
        <mxCell id="IAnXxCuGyKzDiA84Ap1S-561" style="edgeStyle=orthogonalEdgeStyle;rounded=0;orthogonalLoop=1;jettySize=auto;html=1;" edge="1" parent="1" source="IAnXxCuGyKzDiA84Ap1S-461" target="IAnXxCuGyKzDiA84Ap1S-557">
          <mxGeometry relative="1" as="geometry" />
        </mxCell>
        <mxCell id="IAnXxCuGyKzDiA84Ap1S-461" value="" style="whiteSpace=wrap;html=1;aspect=fixed;" vertex="1" parent="1">
          <mxGeometry x="1309" y="2210.75" width="47" height="47" as="geometry" />
        </mxCell>
        <mxCell id="IAnXxCuGyKzDiA84Ap1S-462" value="" style="whiteSpace=wrap;html=1;aspect=fixed;" vertex="1" parent="1">
          <mxGeometry x="1121" y="2257.75" width="47" height="47" as="geometry" />
        </mxCell>
        <mxCell id="IAnXxCuGyKzDiA84Ap1S-463" value="PIT" style="whiteSpace=wrap;html=1;aspect=fixed;fontStyle=1" vertex="1" parent="1">
          <mxGeometry x="1168" y="2257.75" width="47" height="47" as="geometry" />
        </mxCell>
        <mxCell id="IAnXxCuGyKzDiA84Ap1S-464" value="" style="whiteSpace=wrap;html=1;aspect=fixed;" vertex="1" parent="1">
          <mxGeometry x="1215" y="2257.75" width="47" height="47" as="geometry" />
        </mxCell>
        <mxCell id="IAnXxCuGyKzDiA84Ap1S-465" value="" style="whiteSpace=wrap;html=1;aspect=fixed;" vertex="1" parent="1">
          <mxGeometry x="1262" y="2257.75" width="47" height="47" as="geometry" />
        </mxCell>
        <mxCell id="IAnXxCuGyKzDiA84Ap1S-466" value="" style="whiteSpace=wrap;html=1;aspect=fixed;" vertex="1" parent="1">
          <mxGeometry x="1309" y="2257.75" width="47" height="47" as="geometry" />
        </mxCell>
        <mxCell id="IAnXxCuGyKzDiA84Ap1S-467" value="" style="whiteSpace=wrap;html=1;aspect=fixed;" vertex="1" parent="1">
          <mxGeometry x="1121" y="2304.75" width="47" height="47" as="geometry" />
        </mxCell>
        <mxCell id="IAnXxCuGyKzDiA84Ap1S-468" value="" style="whiteSpace=wrap;html=1;aspect=fixed;" vertex="1" parent="1">
          <mxGeometry x="1168" y="2304.75" width="47" height="47" as="geometry" />
        </mxCell>
        <mxCell id="IAnXxCuGyKzDiA84Ap1S-469" value="" style="whiteSpace=wrap;html=1;aspect=fixed;" vertex="1" parent="1">
          <mxGeometry x="1215" y="2304.75" width="47" height="47" as="geometry" />
        </mxCell>
        <mxCell id="IAnXxCuGyKzDiA84Ap1S-470" value="" style="whiteSpace=wrap;html=1;aspect=fixed;" vertex="1" parent="1">
          <mxGeometry x="1262" y="2304.75" width="47" height="47" as="geometry" />
        </mxCell>
        <mxCell id="IAnXxCuGyKzDiA84Ap1S-471" value="" style="whiteSpace=wrap;html=1;aspect=fixed;" vertex="1" parent="1">
          <mxGeometry x="1309" y="2304.75" width="47" height="47" as="geometry" />
        </mxCell>
        <mxCell id="IAnXxCuGyKzDiA84Ap1S-473" value="" style="whiteSpace=wrap;html=1;aspect=fixed;" vertex="1" parent="1">
          <mxGeometry x="1121" y="2374.75" width="47" height="47" as="geometry" />
        </mxCell>
        <mxCell id="IAnXxCuGyKzDiA84Ap1S-474" value="" style="whiteSpace=wrap;html=1;aspect=fixed;" vertex="1" parent="1">
          <mxGeometry x="1168" y="2374.75" width="47" height="47" as="geometry" />
        </mxCell>
        <mxCell id="IAnXxCuGyKzDiA84Ap1S-475" value="" style="whiteSpace=wrap;html=1;aspect=fixed;" vertex="1" parent="1">
          <mxGeometry x="1215" y="2374.75" width="47" height="47" as="geometry" />
        </mxCell>
        <mxCell id="IAnXxCuGyKzDiA84Ap1S-476" value="" style="whiteSpace=wrap;html=1;aspect=fixed;" vertex="1" parent="1">
          <mxGeometry x="1262" y="2374.75" width="47" height="47" as="geometry" />
        </mxCell>
        <mxCell id="IAnXxCuGyKzDiA84Ap1S-477" value="" style="whiteSpace=wrap;html=1;aspect=fixed;" vertex="1" parent="1">
          <mxGeometry x="1309" y="2374.75" width="47" height="47" as="geometry" />
        </mxCell>
        <mxCell id="IAnXxCuGyKzDiA84Ap1S-478" value="" style="whiteSpace=wrap;html=1;aspect=fixed;" vertex="1" parent="1">
          <mxGeometry x="1121" y="2421.75" width="47" height="47" as="geometry" />
        </mxCell>
        <mxCell id="IAnXxCuGyKzDiA84Ap1S-479" value="" style="whiteSpace=wrap;html=1;aspect=fixed;" vertex="1" parent="1">
          <mxGeometry x="1168" y="2421.75" width="47" height="47" as="geometry" />
        </mxCell>
        <mxCell id="IAnXxCuGyKzDiA84Ap1S-480" value="" style="whiteSpace=wrap;html=1;aspect=fixed;fontStyle=1" vertex="1" parent="1">
          <mxGeometry x="1215" y="2421.75" width="47" height="47" as="geometry" />
        </mxCell>
        <mxCell id="IAnXxCuGyKzDiA84Ap1S-481" value="" style="whiteSpace=wrap;html=1;aspect=fixed;" vertex="1" parent="1">
          <mxGeometry x="1262" y="2421.75" width="47" height="47" as="geometry" />
        </mxCell>
        <mxCell id="IAnXxCuGyKzDiA84Ap1S-482" value="" style="whiteSpace=wrap;html=1;aspect=fixed;" vertex="1" parent="1">
          <mxGeometry x="1309" y="2421.75" width="47" height="47" as="geometry" />
        </mxCell>
        <mxCell id="IAnXxCuGyKzDiA84Ap1S-483" value="" style="whiteSpace=wrap;html=1;aspect=fixed;" vertex="1" parent="1">
          <mxGeometry x="1121" y="2468.75" width="47" height="47" as="geometry" />
        </mxCell>
        <mxCell id="IAnXxCuGyKzDiA84Ap1S-484" value="" style="whiteSpace=wrap;html=1;aspect=fixed;" vertex="1" parent="1">
          <mxGeometry x="1168" y="2468.75" width="47" height="47" as="geometry" />
        </mxCell>
        <mxCell id="IAnXxCuGyKzDiA84Ap1S-485" value="" style="whiteSpace=wrap;html=1;aspect=fixed;" vertex="1" parent="1">
          <mxGeometry x="1215" y="2468.75" width="47" height="47" as="geometry" />
        </mxCell>
        <mxCell id="IAnXxCuGyKzDiA84Ap1S-486" value="" style="whiteSpace=wrap;html=1;aspect=fixed;" vertex="1" parent="1">
          <mxGeometry x="1262" y="2468.75" width="47" height="47" as="geometry" />
        </mxCell>
        <mxCell id="IAnXxCuGyKzDiA84Ap1S-562" style="edgeStyle=orthogonalEdgeStyle;rounded=0;orthogonalLoop=1;jettySize=auto;html=1;" edge="1" parent="1" source="IAnXxCuGyKzDiA84Ap1S-487" target="IAnXxCuGyKzDiA84Ap1S-558">
          <mxGeometry relative="1" as="geometry" />
        </mxCell>
        <mxCell id="IAnXxCuGyKzDiA84Ap1S-487" value="" style="whiteSpace=wrap;html=1;aspect=fixed;" vertex="1" parent="1">
          <mxGeometry x="1309" y="2468.75" width="47" height="47" as="geometry" />
        </mxCell>
        <mxCell id="IAnXxCuGyKzDiA84Ap1S-488" value="" style="whiteSpace=wrap;html=1;aspect=fixed;" vertex="1" parent="1">
          <mxGeometry x="1121" y="2515.75" width="47" height="47" as="geometry" />
        </mxCell>
        <mxCell id="IAnXxCuGyKzDiA84Ap1S-489" value="" style="whiteSpace=wrap;html=1;aspect=fixed;fontStyle=1" vertex="1" parent="1">
          <mxGeometry x="1168" y="2515.75" width="47" height="47" as="geometry" />
        </mxCell>
        <mxCell id="IAnXxCuGyKzDiA84Ap1S-490" value="" style="whiteSpace=wrap;html=1;aspect=fixed;" vertex="1" parent="1">
          <mxGeometry x="1215" y="2515.75" width="47" height="47" as="geometry" />
        </mxCell>
        <mxCell id="IAnXxCuGyKzDiA84Ap1S-491" value="&lt;b&gt;&lt;font color=&quot;#ff0000&quot;&gt;GOAL&lt;/font&gt;&lt;/b&gt;" style="whiteSpace=wrap;html=1;aspect=fixed;" vertex="1" parent="1">
          <mxGeometry x="1262" y="2515.75" width="47" height="47" as="geometry" />
        </mxCell>
        <mxCell id="IAnXxCuGyKzDiA84Ap1S-492" value="" style="whiteSpace=wrap;html=1;aspect=fixed;" vertex="1" parent="1">
          <mxGeometry x="1309" y="2515.75" width="47" height="47" as="geometry" />
        </mxCell>
        <mxCell id="IAnXxCuGyKzDiA84Ap1S-493" value="" style="whiteSpace=wrap;html=1;aspect=fixed;" vertex="1" parent="1">
          <mxGeometry x="1121" y="2562.75" width="47" height="47" as="geometry" />
        </mxCell>
        <mxCell id="IAnXxCuGyKzDiA84Ap1S-494" value="" style="whiteSpace=wrap;html=1;aspect=fixed;" vertex="1" parent="1">
          <mxGeometry x="1168" y="2562.75" width="47" height="47" as="geometry" />
        </mxCell>
        <mxCell id="IAnXxCuGyKzDiA84Ap1S-495" value="" style="whiteSpace=wrap;html=1;aspect=fixed;" vertex="1" parent="1">
          <mxGeometry x="1215" y="2562.75" width="47" height="47" as="geometry" />
        </mxCell>
        <mxCell id="IAnXxCuGyKzDiA84Ap1S-496" value="" style="whiteSpace=wrap;html=1;aspect=fixed;" vertex="1" parent="1">
          <mxGeometry x="1262" y="2562.75" width="47" height="47" as="geometry" />
        </mxCell>
        <mxCell id="IAnXxCuGyKzDiA84Ap1S-497" value="" style="whiteSpace=wrap;html=1;aspect=fixed;" vertex="1" parent="1">
          <mxGeometry x="1309" y="2562.75" width="47" height="47" as="geometry" />
        </mxCell>
        <mxCell id="IAnXxCuGyKzDiA84Ap1S-498" value="" style="ellipse;whiteSpace=wrap;html=1;aspect=fixed;fillColor=#000000;" vertex="1" parent="1">
          <mxGeometry x="1139.5" y="2652.25" width="10" height="10" as="geometry" />
        </mxCell>
        <mxCell id="IAnXxCuGyKzDiA84Ap1S-502" value="" style="whiteSpace=wrap;html=1;aspect=fixed;" vertex="1" parent="1">
          <mxGeometry x="1168" y="2633.75" width="47" height="47" as="geometry" />
        </mxCell>
        <mxCell id="IAnXxCuGyKzDiA84Ap1S-503" value="" style="whiteSpace=wrap;html=1;aspect=fixed;" vertex="1" parent="1">
          <mxGeometry x="1215" y="2633.75" width="47" height="47" as="geometry" />
        </mxCell>
        <mxCell id="IAnXxCuGyKzDiA84Ap1S-504" value="" style="whiteSpace=wrap;html=1;aspect=fixed;" vertex="1" parent="1">
          <mxGeometry x="1262" y="2633.75" width="47" height="47" as="geometry" />
        </mxCell>
        <mxCell id="IAnXxCuGyKzDiA84Ap1S-505" value="" style="whiteSpace=wrap;html=1;aspect=fixed;" vertex="1" parent="1">
          <mxGeometry x="1309" y="2633.75" width="47" height="47" as="geometry" />
        </mxCell>
        <mxCell id="IAnXxCuGyKzDiA84Ap1S-506" value="" style="whiteSpace=wrap;html=1;aspect=fixed;" vertex="1" parent="1">
          <mxGeometry x="1121" y="2680.75" width="47" height="47" as="geometry" />
        </mxCell>
        <mxCell id="IAnXxCuGyKzDiA84Ap1S-507" value="" style="whiteSpace=wrap;html=1;aspect=fixed;" vertex="1" parent="1">
          <mxGeometry x="1168" y="2680.75" width="47" height="47" as="geometry" />
        </mxCell>
        <mxCell id="IAnXxCuGyKzDiA84Ap1S-508" value="" style="whiteSpace=wrap;html=1;aspect=fixed;fontStyle=1" vertex="1" parent="1">
          <mxGeometry x="1215" y="2680.75" width="47" height="47" as="geometry" />
        </mxCell>
        <mxCell id="IAnXxCuGyKzDiA84Ap1S-509" value="" style="whiteSpace=wrap;html=1;aspect=fixed;" vertex="1" parent="1">
          <mxGeometry x="1262" y="2680.75" width="47" height="47" as="geometry" />
        </mxCell>
        <mxCell id="IAnXxCuGyKzDiA84Ap1S-510" value="" style="whiteSpace=wrap;html=1;aspect=fixed;" vertex="1" parent="1">
          <mxGeometry x="1309" y="2680.75" width="47" height="47" as="geometry" />
        </mxCell>
        <mxCell id="IAnXxCuGyKzDiA84Ap1S-511" value="" style="whiteSpace=wrap;html=1;aspect=fixed;" vertex="1" parent="1">
          <mxGeometry x="1121" y="2727.75" width="47" height="47" as="geometry" />
        </mxCell>
        <mxCell id="IAnXxCuGyKzDiA84Ap1S-512" value="" style="whiteSpace=wrap;html=1;aspect=fixed;" vertex="1" parent="1">
          <mxGeometry x="1168" y="2727.75" width="47" height="47" as="geometry" />
        </mxCell>
        <mxCell id="IAnXxCuGyKzDiA84Ap1S-513" value="" style="whiteSpace=wrap;html=1;aspect=fixed;" vertex="1" parent="1">
          <mxGeometry x="1215" y="2727.75" width="47" height="47" as="geometry" />
        </mxCell>
        <mxCell id="IAnXxCuGyKzDiA84Ap1S-514" value="" style="whiteSpace=wrap;html=1;aspect=fixed;" vertex="1" parent="1">
          <mxGeometry x="1262" y="2727.75" width="47" height="47" as="geometry" />
        </mxCell>
        <mxCell id="IAnXxCuGyKzDiA84Ap1S-563" style="edgeStyle=orthogonalEdgeStyle;rounded=0;orthogonalLoop=1;jettySize=auto;html=1;" edge="1" parent="1" source="IAnXxCuGyKzDiA84Ap1S-515" target="IAnXxCuGyKzDiA84Ap1S-559">
          <mxGeometry relative="1" as="geometry" />
        </mxCell>
        <mxCell id="IAnXxCuGyKzDiA84Ap1S-515" value="" style="whiteSpace=wrap;html=1;aspect=fixed;" vertex="1" parent="1">
          <mxGeometry x="1309" y="2727.75" width="47" height="47" as="geometry" />
        </mxCell>
        <mxCell id="IAnXxCuGyKzDiA84Ap1S-516" value="" style="whiteSpace=wrap;html=1;aspect=fixed;" vertex="1" parent="1">
          <mxGeometry x="1121" y="2774.75" width="47" height="47" as="geometry" />
        </mxCell>
        <mxCell id="IAnXxCuGyKzDiA84Ap1S-517" value="" style="whiteSpace=wrap;html=1;aspect=fixed;fontStyle=1" vertex="1" parent="1">
          <mxGeometry x="1168" y="2774.75" width="47" height="47" as="geometry" />
        </mxCell>
        <mxCell id="IAnXxCuGyKzDiA84Ap1S-518" value="" style="whiteSpace=wrap;html=1;aspect=fixed;" vertex="1" parent="1">
          <mxGeometry x="1215" y="2774.75" width="47" height="47" as="geometry" />
        </mxCell>
        <mxCell id="IAnXxCuGyKzDiA84Ap1S-519" value="" style="whiteSpace=wrap;html=1;aspect=fixed;" vertex="1" parent="1">
          <mxGeometry x="1262" y="2774.75" width="47" height="47" as="geometry" />
        </mxCell>
        <mxCell id="IAnXxCuGyKzDiA84Ap1S-520" value="" style="whiteSpace=wrap;html=1;aspect=fixed;" vertex="1" parent="1">
          <mxGeometry x="1309" y="2774.75" width="47" height="47" as="geometry" />
        </mxCell>
        <mxCell id="IAnXxCuGyKzDiA84Ap1S-521" value="" style="whiteSpace=wrap;html=1;aspect=fixed;" vertex="1" parent="1">
          <mxGeometry x="1121" y="2821.75" width="47" height="47" as="geometry" />
        </mxCell>
        <mxCell id="IAnXxCuGyKzDiA84Ap1S-522" value="" style="whiteSpace=wrap;html=1;aspect=fixed;" vertex="1" parent="1">
          <mxGeometry x="1168" y="2821.75" width="47" height="47" as="geometry" />
        </mxCell>
        <mxCell id="IAnXxCuGyKzDiA84Ap1S-523" value="" style="whiteSpace=wrap;html=1;aspect=fixed;" vertex="1" parent="1">
          <mxGeometry x="1215" y="2821.75" width="47" height="47" as="geometry" />
        </mxCell>
        <mxCell id="IAnXxCuGyKzDiA84Ap1S-524" value="" style="whiteSpace=wrap;html=1;aspect=fixed;" vertex="1" parent="1">
          <mxGeometry x="1262" y="2821.75" width="47" height="47" as="geometry" />
        </mxCell>
        <mxCell id="IAnXxCuGyKzDiA84Ap1S-525" value="" style="whiteSpace=wrap;html=1;aspect=fixed;" vertex="1" parent="1">
          <mxGeometry x="1309" y="2821.75" width="47" height="47" as="geometry" />
        </mxCell>
        <mxCell id="IAnXxCuGyKzDiA84Ap1S-526" value="START" style="whiteSpace=wrap;html=1;aspect=fixed;" vertex="1" parent="1">
          <mxGeometry x="702" y="2233" width="47" height="47" as="geometry" />
        </mxCell>
        <mxCell id="IAnXxCuGyKzDiA84Ap1S-527" value="" style="whiteSpace=wrap;html=1;aspect=fixed;" vertex="1" parent="1">
          <mxGeometry x="749" y="2233" width="47" height="47" as="geometry" />
        </mxCell>
        <mxCell id="IAnXxCuGyKzDiA84Ap1S-528" value="" style="whiteSpace=wrap;html=1;aspect=fixed;" vertex="1" parent="1">
          <mxGeometry x="796" y="2233" width="47" height="47" as="geometry" />
        </mxCell>
        <mxCell id="IAnXxCuGyKzDiA84Ap1S-529" value="" style="whiteSpace=wrap;html=1;aspect=fixed;" vertex="1" parent="1">
          <mxGeometry x="843" y="2233" width="47" height="47" as="geometry" />
        </mxCell>
        <mxCell id="IAnXxCuGyKzDiA84Ap1S-530" value="" style="whiteSpace=wrap;html=1;aspect=fixed;" vertex="1" parent="1">
          <mxGeometry x="890" y="2233" width="47" height="47" as="geometry" />
        </mxCell>
        <mxCell id="IAnXxCuGyKzDiA84Ap1S-531" value="" style="whiteSpace=wrap;html=1;aspect=fixed;" vertex="1" parent="1">
          <mxGeometry x="702" y="2280" width="47" height="47" as="geometry" />
        </mxCell>
        <mxCell id="IAnXxCuGyKzDiA84Ap1S-532" value="" style="whiteSpace=wrap;html=1;aspect=fixed;" vertex="1" parent="1">
          <mxGeometry x="749" y="2280" width="47" height="47" as="geometry" />
        </mxCell>
        <mxCell id="IAnXxCuGyKzDiA84Ap1S-533" value="PIT" style="whiteSpace=wrap;html=1;aspect=fixed;fontStyle=1" vertex="1" parent="1">
          <mxGeometry x="796" y="2280" width="47" height="47" as="geometry" />
        </mxCell>
        <mxCell id="IAnXxCuGyKzDiA84Ap1S-534" value="" style="whiteSpace=wrap;html=1;aspect=fixed;" vertex="1" parent="1">
          <mxGeometry x="843" y="2280" width="47" height="47" as="geometry" />
        </mxCell>
        <mxCell id="IAnXxCuGyKzDiA84Ap1S-535" value="" style="whiteSpace=wrap;html=1;aspect=fixed;" vertex="1" parent="1">
          <mxGeometry x="890" y="2280" width="47" height="47" as="geometry" />
        </mxCell>
        <mxCell id="IAnXxCuGyKzDiA84Ap1S-536" value="" style="whiteSpace=wrap;html=1;aspect=fixed;" vertex="1" parent="1">
          <mxGeometry x="702" y="2327" width="47" height="47" as="geometry" />
        </mxCell>
        <mxCell id="IAnXxCuGyKzDiA84Ap1S-537" value="" style="whiteSpace=wrap;html=1;aspect=fixed;" vertex="1" parent="1">
          <mxGeometry x="749" y="2327" width="47" height="47" as="geometry" />
        </mxCell>
        <mxCell id="IAnXxCuGyKzDiA84Ap1S-538" value="" style="whiteSpace=wrap;html=1;aspect=fixed;" vertex="1" parent="1">
          <mxGeometry x="796" y="2327" width="47" height="47" as="geometry" />
        </mxCell>
        <mxCell id="IAnXxCuGyKzDiA84Ap1S-539" value="" style="whiteSpace=wrap;html=1;aspect=fixed;" vertex="1" parent="1">
          <mxGeometry x="843" y="2327" width="47" height="47" as="geometry" />
        </mxCell>
        <mxCell id="IAnXxCuGyKzDiA84Ap1S-552" style="edgeStyle=orthogonalEdgeStyle;rounded=0;orthogonalLoop=1;jettySize=auto;html=1;entryX=0;entryY=0.5;entryDx=0;entryDy=0;" edge="1" parent="1" source="IAnXxCuGyKzDiA84Ap1S-540" target="IAnXxCuGyKzDiA84Ap1S-431">
          <mxGeometry relative="1" as="geometry" />
        </mxCell>
        <mxCell id="IAnXxCuGyKzDiA84Ap1S-553" style="edgeStyle=orthogonalEdgeStyle;rounded=0;orthogonalLoop=1;jettySize=auto;html=1;entryX=0;entryY=0.5;entryDx=0;entryDy=0;" edge="1" parent="1" source="IAnXxCuGyKzDiA84Ap1S-540" target="IAnXxCuGyKzDiA84Ap1S-457">
          <mxGeometry relative="1" as="geometry" />
        </mxCell>
        <mxCell id="IAnXxCuGyKzDiA84Ap1S-554" style="edgeStyle=orthogonalEdgeStyle;rounded=0;orthogonalLoop=1;jettySize=auto;html=1;entryX=0;entryY=0.5;entryDx=0;entryDy=0;" edge="1" parent="1" source="IAnXxCuGyKzDiA84Ap1S-540" target="IAnXxCuGyKzDiA84Ap1S-483">
          <mxGeometry relative="1" as="geometry" />
        </mxCell>
        <mxCell id="IAnXxCuGyKzDiA84Ap1S-555" style="edgeStyle=orthogonalEdgeStyle;rounded=0;orthogonalLoop=1;jettySize=auto;html=1;entryX=0;entryY=0.5;entryDx=0;entryDy=0;" edge="1" parent="1" source="IAnXxCuGyKzDiA84Ap1S-540" target="IAnXxCuGyKzDiA84Ap1S-511">
          <mxGeometry relative="1" as="geometry" />
        </mxCell>
        <mxCell id="IAnXxCuGyKzDiA84Ap1S-540" value="" style="whiteSpace=wrap;html=1;aspect=fixed;" vertex="1" parent="1">
          <mxGeometry x="890" y="2327" width="47" height="47" as="geometry" />
        </mxCell>
        <mxCell id="IAnXxCuGyKzDiA84Ap1S-541" value="" style="whiteSpace=wrap;html=1;aspect=fixed;" vertex="1" parent="1">
          <mxGeometry x="702" y="2374" width="47" height="47" as="geometry" />
        </mxCell>
        <mxCell id="IAnXxCuGyKzDiA84Ap1S-542" value="PIT" style="whiteSpace=wrap;html=1;aspect=fixed;fontStyle=1" vertex="1" parent="1">
          <mxGeometry x="749" y="2374" width="47" height="47" as="geometry" />
        </mxCell>
        <mxCell id="IAnXxCuGyKzDiA84Ap1S-543" value="" style="whiteSpace=wrap;html=1;aspect=fixed;" vertex="1" parent="1">
          <mxGeometry x="796" y="2374" width="47" height="47" as="geometry" />
        </mxCell>
        <mxCell id="IAnXxCuGyKzDiA84Ap1S-544" value="&lt;b&gt;&lt;font color=&quot;#ff0000&quot;&gt;GOAL&lt;/font&gt;&lt;/b&gt;" style="whiteSpace=wrap;html=1;aspect=fixed;" vertex="1" parent="1">
          <mxGeometry x="843" y="2374" width="47" height="47" as="geometry" />
        </mxCell>
        <mxCell id="IAnXxCuGyKzDiA84Ap1S-545" value="" style="whiteSpace=wrap;html=1;aspect=fixed;" vertex="1" parent="1">
          <mxGeometry x="890" y="2374" width="47" height="47" as="geometry" />
        </mxCell>
        <mxCell id="IAnXxCuGyKzDiA84Ap1S-546" value="" style="whiteSpace=wrap;html=1;aspect=fixed;" vertex="1" parent="1">
          <mxGeometry x="702" y="2421" width="47" height="47" as="geometry" />
        </mxCell>
        <mxCell id="IAnXxCuGyKzDiA84Ap1S-547" value="" style="whiteSpace=wrap;html=1;aspect=fixed;" vertex="1" parent="1">
          <mxGeometry x="749" y="2421" width="47" height="47" as="geometry" />
        </mxCell>
        <mxCell id="IAnXxCuGyKzDiA84Ap1S-548" value="" style="whiteSpace=wrap;html=1;aspect=fixed;" vertex="1" parent="1">
          <mxGeometry x="796" y="2421" width="47" height="47" as="geometry" />
        </mxCell>
        <mxCell id="IAnXxCuGyKzDiA84Ap1S-549" value="" style="whiteSpace=wrap;html=1;aspect=fixed;" vertex="1" parent="1">
          <mxGeometry x="843" y="2421" width="47" height="47" as="geometry" />
        </mxCell>
        <mxCell id="IAnXxCuGyKzDiA84Ap1S-550" value="" style="whiteSpace=wrap;html=1;aspect=fixed;" vertex="1" parent="1">
          <mxGeometry x="890" y="2421" width="47" height="47" as="geometry" />
        </mxCell>
        <mxCell id="IAnXxCuGyKzDiA84Ap1S-551" value="" style="ellipse;whiteSpace=wrap;html=1;aspect=fixed;fillColor=#000000;" vertex="1" parent="1">
          <mxGeometry x="720.5" y="2266" width="10" height="10" as="geometry" />
        </mxCell>
        <mxCell id="IAnXxCuGyKzDiA84Ap1S-556" value="&lt;font style=&quot;font-size: 24px;&quot;&gt;1 0 0 0 0&lt;br&gt;0 0 0 0 0&lt;br&gt;0 0 0 0 0&lt;br&gt;0 0 0 0 0&lt;br&gt;0 0 0 0 0&lt;/font&gt;" style="text;html=1;strokeColor=none;fillColor=none;align=center;verticalAlign=middle;whiteSpace=wrap;rounded=0;" vertex="1" parent="1">
          <mxGeometry x="1473" y="1896.5" width="234" height="160" as="geometry" />
        </mxCell>
        <mxCell id="IAnXxCuGyKzDiA84Ap1S-557" value="&lt;font style=&quot;font-size: 24px;&quot;&gt;0 0 0 0 0&lt;br&gt;0 0 1 0 0&lt;br&gt;0 0 0 0 0&lt;br&gt;0 1 0 0 0&lt;br&gt;0 0 0 0 0&lt;/font&gt;" style="text;html=1;strokeColor=none;fillColor=none;align=center;verticalAlign=middle;whiteSpace=wrap;rounded=0;" vertex="1" parent="1">
          <mxGeometry x="1473" y="2153.75" width="234" height="160" as="geometry" />
        </mxCell>
        <mxCell id="IAnXxCuGyKzDiA84Ap1S-558" value="&lt;font style=&quot;font-size: 24px;&quot;&gt;0 0 0 0 0&lt;br&gt;0 0 0 0 0&lt;br&gt;0 0 0 0 0&lt;br&gt;0 0 0 1 0&lt;br&gt;0 0 0 0 0&lt;/font&gt;" style="text;html=1;strokeColor=none;fillColor=none;align=center;verticalAlign=middle;whiteSpace=wrap;rounded=0;" vertex="1" parent="1">
          <mxGeometry x="1473" y="2411.75" width="234" height="160" as="geometry" />
        </mxCell>
        <mxCell id="IAnXxCuGyKzDiA84Ap1S-559" value="&lt;font style=&quot;font-size: 24px;&quot;&gt;1 0 0 0 0&lt;br&gt;0 0 0 0 0&lt;br&gt;0 0 0 0 0&lt;br&gt;0 0 0 0 0&lt;br&gt;0 0 0 0 0&lt;/font&gt;" style="text;html=1;strokeColor=none;fillColor=none;align=center;verticalAlign=middle;whiteSpace=wrap;rounded=0;" vertex="1" parent="1">
          <mxGeometry x="1473" y="2670.75" width="234" height="160" as="geometry" />
        </mxCell>
        <mxCell id="IAnXxCuGyKzDiA84Ap1S-564" value="" style="whiteSpace=wrap;html=1;aspect=fixed;" vertex="1" parent="1">
          <mxGeometry x="630" y="3076" width="229" height="229" as="geometry" />
        </mxCell>
        <mxCell id="IAnXxCuGyKzDiA84Ap1S-565" value="" style="whiteSpace=wrap;html=1;aspect=fixed;" vertex="1" parent="1">
          <mxGeometry x="641" y="3089" width="229" height="229" as="geometry" />
        </mxCell>
        <mxCell id="IAnXxCuGyKzDiA84Ap1S-566" value="" style="whiteSpace=wrap;html=1;aspect=fixed;" vertex="1" parent="1">
          <mxGeometry x="652" y="3102" width="229" height="229" as="geometry" />
        </mxCell>
        <mxCell id="IAnXxCuGyKzDiA84Ap1S-570" style="edgeStyle=orthogonalEdgeStyle;rounded=0;orthogonalLoop=1;jettySize=auto;html=1;entryX=0;entryY=0.5;entryDx=0;entryDy=0;" edge="1" parent="1" source="IAnXxCuGyKzDiA84Ap1S-567" target="IAnXxCuGyKzDiA84Ap1S-569">
          <mxGeometry relative="1" as="geometry" />
        </mxCell>
        <mxCell id="IAnXxCuGyKzDiA84Ap1S-567" value="&lt;font style=&quot;font-size: 24px;&quot;&gt;encoded state&lt;/font&gt;" style="whiteSpace=wrap;html=1;aspect=fixed;" vertex="1" parent="1">
          <mxGeometry x="665" y="3117" width="229" height="229" as="geometry" />
        </mxCell>
        <mxCell id="IAnXxCuGyKzDiA84Ap1S-587" style="edgeStyle=orthogonalEdgeStyle;rounded=0;orthogonalLoop=1;jettySize=auto;html=1;entryX=0;entryY=0.5;entryDx=0;entryDy=0;" edge="1" parent="1" source="IAnXxCuGyKzDiA84Ap1S-569" target="IAnXxCuGyKzDiA84Ap1S-573">
          <mxGeometry relative="1" as="geometry" />
        </mxCell>
        <mxCell id="IAnXxCuGyKzDiA84Ap1S-569" value="&lt;font style=&quot;font-size: 24px;&quot;&gt;deep Q network&lt;/font&gt;" style="rounded=0;whiteSpace=wrap;html=1;" vertex="1" parent="1">
          <mxGeometry x="1056" y="3185" width="249" height="93" as="geometry" />
        </mxCell>
        <mxCell id="IAnXxCuGyKzDiA84Ap1S-590" style="edgeStyle=orthogonalEdgeStyle;rounded=0;orthogonalLoop=1;jettySize=auto;html=1;entryX=0.5;entryY=0;entryDx=0;entryDy=0;" edge="1" parent="1" source="IAnXxCuGyKzDiA84Ap1S-573" target="IAnXxCuGyKzDiA84Ap1S-589">
          <mxGeometry relative="1" as="geometry" />
        </mxCell>
        <mxCell id="IAnXxCuGyKzDiA84Ap1S-573" value="" style="whiteSpace=wrap;html=1;aspect=fixed;" vertex="1" parent="1">
          <mxGeometry x="1434" y="3117" width="229" height="229" as="geometry" />
        </mxCell>
        <mxCell id="IAnXxCuGyKzDiA84Ap1S-574" value="" style="endArrow=classic;html=1;rounded=0;" edge="1" parent="1">
          <mxGeometry width="50" height="50" relative="1" as="geometry">
            <mxPoint x="1442" y="3300" as="sourcePoint" />
            <mxPoint x="1655" y="3300" as="targetPoint" />
          </mxGeometry>
        </mxCell>
        <mxCell id="IAnXxCuGyKzDiA84Ap1S-575" value="" style="endArrow=classic;html=1;rounded=0;" edge="1" parent="1">
          <mxGeometry width="50" height="50" relative="1" as="geometry">
            <mxPoint x="1468" y="3328" as="sourcePoint" />
            <mxPoint x="1468" y="3147" as="targetPoint" />
          </mxGeometry>
        </mxCell>
        <mxCell id="IAnXxCuGyKzDiA84Ap1S-576" value="Actions" style="text;html=1;strokeColor=none;fillColor=none;align=center;verticalAlign=middle;whiteSpace=wrap;rounded=0;" vertex="1" parent="1">
          <mxGeometry x="1599" y="3300" width="60" height="30" as="geometry" />
        </mxCell>
        <mxCell id="IAnXxCuGyKzDiA84Ap1S-577" value="Probabilities" style="text;html=1;strokeColor=none;fillColor=none;align=center;verticalAlign=middle;whiteSpace=wrap;rounded=0;" vertex="1" parent="1">
          <mxGeometry x="1466" y="3131" width="96" height="30" as="geometry" />
        </mxCell>
        <mxCell id="IAnXxCuGyKzDiA84Ap1S-578" value="" style="rounded=0;whiteSpace=wrap;html=1;fillColor=#CCCCCC;fontColor=#333333;strokeColor=#666666;" vertex="1" parent="1">
          <mxGeometry x="1487" y="3261" width="34" height="39" as="geometry" />
        </mxCell>
        <mxCell id="IAnXxCuGyKzDiA84Ap1S-584" value="" style="rounded=0;whiteSpace=wrap;html=1;fillColor=#999999;" vertex="1" parent="1">
          <mxGeometry x="1521" y="3219" width="34" height="81" as="geometry" />
        </mxCell>
        <mxCell id="IAnXxCuGyKzDiA84Ap1S-585" value="" style="rounded=0;whiteSpace=wrap;html=1;fillColor=#B3B3B3;" vertex="1" parent="1">
          <mxGeometry x="1555" y="3240" width="34" height="60" as="geometry" />
        </mxCell>
        <mxCell id="IAnXxCuGyKzDiA84Ap1S-586" value="" style="rounded=0;whiteSpace=wrap;html=1;fillColor=#E6E6E6;" vertex="1" parent="1">
          <mxGeometry x="1589" y="3279" width="34" height="21" as="geometry" />
        </mxCell>
        <mxCell id="IAnXxCuGyKzDiA84Ap1S-588" value="Action 2" style="text;html=1;strokeColor=none;fillColor=none;align=center;verticalAlign=middle;whiteSpace=wrap;rounded=0;" vertex="1" parent="1">
          <mxGeometry x="1508" y="3301" width="60" height="30" as="geometry" />
        </mxCell>
        <mxCell id="IAnXxCuGyKzDiA84Ap1S-643" style="edgeStyle=orthogonalEdgeStyle;rounded=0;orthogonalLoop=1;jettySize=auto;html=1;entryX=1;entryY=0.5;entryDx=0;entryDy=0;" edge="1" parent="1" source="IAnXxCuGyKzDiA84Ap1S-589" target="IAnXxCuGyKzDiA84Ap1S-631">
          <mxGeometry relative="1" as="geometry" />
        </mxCell>
        <mxCell id="IAnXxCuGyKzDiA84Ap1S-589" value="&lt;font style=&quot;font-size: 24px;&quot;&gt;take Action 2&lt;/font&gt;" style="rounded=0;whiteSpace=wrap;html=1;" vertex="1" parent="1">
          <mxGeometry x="1424" y="3460" width="249" height="93" as="geometry" />
        </mxCell>
        <mxCell id="IAnXxCuGyKzDiA84Ap1S-617" value="START" style="whiteSpace=wrap;html=1;aspect=fixed;" vertex="1" parent="1">
          <mxGeometry x="1074" y="3389" width="47" height="47" as="geometry" />
        </mxCell>
        <mxCell id="IAnXxCuGyKzDiA84Ap1S-618" value="" style="whiteSpace=wrap;html=1;aspect=fixed;" vertex="1" parent="1">
          <mxGeometry x="1121" y="3389" width="47" height="47" as="geometry" />
        </mxCell>
        <mxCell id="IAnXxCuGyKzDiA84Ap1S-619" value="" style="whiteSpace=wrap;html=1;aspect=fixed;" vertex="1" parent="1">
          <mxGeometry x="1168" y="3389" width="47" height="47" as="geometry" />
        </mxCell>
        <mxCell id="IAnXxCuGyKzDiA84Ap1S-620" value="" style="whiteSpace=wrap;html=1;aspect=fixed;" vertex="1" parent="1">
          <mxGeometry x="1215" y="3389" width="47" height="47" as="geometry" />
        </mxCell>
        <mxCell id="IAnXxCuGyKzDiA84Ap1S-621" value="" style="whiteSpace=wrap;html=1;aspect=fixed;" vertex="1" parent="1">
          <mxGeometry x="1262" y="3389" width="47" height="47" as="geometry" />
        </mxCell>
        <mxCell id="IAnXxCuGyKzDiA84Ap1S-622" value="" style="whiteSpace=wrap;html=1;aspect=fixed;" vertex="1" parent="1">
          <mxGeometry x="1074" y="3436" width="47" height="47" as="geometry" />
        </mxCell>
        <mxCell id="IAnXxCuGyKzDiA84Ap1S-623" value="" style="whiteSpace=wrap;html=1;aspect=fixed;" vertex="1" parent="1">
          <mxGeometry x="1121" y="3436" width="47" height="47" as="geometry" />
        </mxCell>
        <mxCell id="IAnXxCuGyKzDiA84Ap1S-624" value="PIT" style="whiteSpace=wrap;html=1;aspect=fixed;fontStyle=1" vertex="1" parent="1">
          <mxGeometry x="1168" y="3436" width="47" height="47" as="geometry" />
        </mxCell>
        <mxCell id="IAnXxCuGyKzDiA84Ap1S-625" value="" style="whiteSpace=wrap;html=1;aspect=fixed;" vertex="1" parent="1">
          <mxGeometry x="1215" y="3436" width="47" height="47" as="geometry" />
        </mxCell>
        <mxCell id="IAnXxCuGyKzDiA84Ap1S-626" value="" style="whiteSpace=wrap;html=1;aspect=fixed;" vertex="1" parent="1">
          <mxGeometry x="1262" y="3436" width="47" height="47" as="geometry" />
        </mxCell>
        <mxCell id="IAnXxCuGyKzDiA84Ap1S-645" style="edgeStyle=orthogonalEdgeStyle;rounded=0;orthogonalLoop=1;jettySize=auto;html=1;entryX=1;entryY=0.5;entryDx=0;entryDy=0;" edge="1" parent="1" source="IAnXxCuGyKzDiA84Ap1S-627" target="IAnXxCuGyKzDiA84Ap1S-644">
          <mxGeometry relative="1" as="geometry" />
        </mxCell>
        <mxCell id="IAnXxCuGyKzDiA84Ap1S-627" value="" style="whiteSpace=wrap;html=1;aspect=fixed;" vertex="1" parent="1">
          <mxGeometry x="1074" y="3483" width="47" height="47" as="geometry" />
        </mxCell>
        <mxCell id="IAnXxCuGyKzDiA84Ap1S-628" value="" style="whiteSpace=wrap;html=1;aspect=fixed;" vertex="1" parent="1">
          <mxGeometry x="1121" y="3483" width="47" height="47" as="geometry" />
        </mxCell>
        <mxCell id="IAnXxCuGyKzDiA84Ap1S-629" value="" style="whiteSpace=wrap;html=1;aspect=fixed;" vertex="1" parent="1">
          <mxGeometry x="1168" y="3483" width="47" height="47" as="geometry" />
        </mxCell>
        <mxCell id="IAnXxCuGyKzDiA84Ap1S-630" value="" style="whiteSpace=wrap;html=1;aspect=fixed;" vertex="1" parent="1">
          <mxGeometry x="1215" y="3483" width="47" height="47" as="geometry" />
        </mxCell>
        <mxCell id="IAnXxCuGyKzDiA84Ap1S-631" value="" style="whiteSpace=wrap;html=1;aspect=fixed;" vertex="1" parent="1">
          <mxGeometry x="1262" y="3483" width="47" height="47" as="geometry" />
        </mxCell>
        <mxCell id="IAnXxCuGyKzDiA84Ap1S-632" value="" style="whiteSpace=wrap;html=1;aspect=fixed;" vertex="1" parent="1">
          <mxGeometry x="1074" y="3530" width="47" height="47" as="geometry" />
        </mxCell>
        <mxCell id="IAnXxCuGyKzDiA84Ap1S-633" value="PIT" style="whiteSpace=wrap;html=1;aspect=fixed;fontStyle=1" vertex="1" parent="1">
          <mxGeometry x="1121" y="3530" width="47" height="47" as="geometry" />
        </mxCell>
        <mxCell id="IAnXxCuGyKzDiA84Ap1S-634" value="" style="whiteSpace=wrap;html=1;aspect=fixed;" vertex="1" parent="1">
          <mxGeometry x="1168" y="3530" width="47" height="47" as="geometry" />
        </mxCell>
        <mxCell id="IAnXxCuGyKzDiA84Ap1S-635" value="&lt;b&gt;&lt;font color=&quot;#ff0000&quot;&gt;GOAL&lt;/font&gt;&lt;/b&gt;" style="whiteSpace=wrap;html=1;aspect=fixed;" vertex="1" parent="1">
          <mxGeometry x="1215" y="3530" width="47" height="47" as="geometry" />
        </mxCell>
        <mxCell id="IAnXxCuGyKzDiA84Ap1S-636" value="" style="whiteSpace=wrap;html=1;aspect=fixed;" vertex="1" parent="1">
          <mxGeometry x="1262" y="3530" width="47" height="47" as="geometry" />
        </mxCell>
        <mxCell id="IAnXxCuGyKzDiA84Ap1S-637" value="" style="whiteSpace=wrap;html=1;aspect=fixed;" vertex="1" parent="1">
          <mxGeometry x="1074" y="3577" width="47" height="47" as="geometry" />
        </mxCell>
        <mxCell id="IAnXxCuGyKzDiA84Ap1S-638" value="" style="whiteSpace=wrap;html=1;aspect=fixed;" vertex="1" parent="1">
          <mxGeometry x="1121" y="3577" width="47" height="47" as="geometry" />
        </mxCell>
        <mxCell id="IAnXxCuGyKzDiA84Ap1S-639" value="" style="whiteSpace=wrap;html=1;aspect=fixed;" vertex="1" parent="1">
          <mxGeometry x="1168" y="3577" width="47" height="47" as="geometry" />
        </mxCell>
        <mxCell id="IAnXxCuGyKzDiA84Ap1S-640" value="" style="whiteSpace=wrap;html=1;aspect=fixed;" vertex="1" parent="1">
          <mxGeometry x="1215" y="3577" width="47" height="47" as="geometry" />
        </mxCell>
        <mxCell id="IAnXxCuGyKzDiA84Ap1S-641" value="" style="whiteSpace=wrap;html=1;aspect=fixed;" vertex="1" parent="1">
          <mxGeometry x="1262" y="3577" width="47" height="47" as="geometry" />
        </mxCell>
        <mxCell id="IAnXxCuGyKzDiA84Ap1S-642" value="" style="ellipse;whiteSpace=wrap;html=1;aspect=fixed;fillColor=#000000;" vertex="1" parent="1">
          <mxGeometry x="1139.5" y="3501.5" width="10" height="10" as="geometry" />
        </mxCell>
        <mxCell id="IAnXxCuGyKzDiA84Ap1S-646" style="edgeStyle=orthogonalEdgeStyle;rounded=0;orthogonalLoop=1;jettySize=auto;html=1;entryX=0.5;entryY=1;entryDx=0;entryDy=0;" edge="1" parent="1" source="IAnXxCuGyKzDiA84Ap1S-644" target="IAnXxCuGyKzDiA84Ap1S-567">
          <mxGeometry relative="1" as="geometry" />
        </mxCell>
        <mxCell id="IAnXxCuGyKzDiA84Ap1S-644" value="&lt;font style=&quot;font-size: 24px;&quot;&gt;encode state&lt;/font&gt;" style="rounded=0;whiteSpace=wrap;html=1;" vertex="1" parent="1">
          <mxGeometry x="655" y="3460" width="249" height="93" as="geometry" />
        </mxCell>
        <mxCell id="IAnXxCuGyKzDiA84Ap1S-647" value="&lt;font style=&quot;font-size: 24px;&quot;&gt;将编码状态放进 Q 网络，得到不同动作的 Q 值（概率分布）&lt;/font&gt;" style="text;html=1;strokeColor=none;fillColor=none;align=center;verticalAlign=middle;whiteSpace=wrap;rounded=0;" vertex="1" parent="1">
          <mxGeometry x="1018.5" y="3076" width="324" height="87" as="geometry" />
        </mxCell>
        <mxCell id="IAnXxCuGyKzDiA84Ap1S-648" value="&lt;font style=&quot;font-size: 24px;&quot;&gt;通过一定策略根据动作概率分布选择动作（这里选择了概率最大的）&lt;/font&gt;" style="text;html=1;strokeColor=none;fillColor=none;align=center;verticalAlign=middle;whiteSpace=wrap;rounded=0;" vertex="1" parent="1">
          <mxGeometry x="1423" y="3571" width="251" height="87" as="geometry" />
        </mxCell>
        <mxCell id="IAnXxCuGyKzDiA84Ap1S-649" value="&lt;font style=&quot;font-size: 24px;&quot;&gt;执行动作，改变环境&lt;/font&gt;" style="text;html=1;strokeColor=none;fillColor=none;align=center;verticalAlign=middle;whiteSpace=wrap;rounded=0;" vertex="1" parent="1">
          <mxGeometry x="1066" y="3644" width="251" height="47" as="geometry" />
        </mxCell>
        <mxCell id="IAnXxCuGyKzDiA84Ap1S-650" value="&lt;font style=&quot;font-size: 24px;&quot;&gt;对改变后的环境进行编码，然后再重复整个过程&lt;/font&gt;" style="text;html=1;strokeColor=none;fillColor=none;align=center;verticalAlign=middle;whiteSpace=wrap;rounded=0;" vertex="1" parent="1">
          <mxGeometry x="640.5" y="3564" width="278" height="77" as="geometry" />
        </mxCell>
        <mxCell id="IAnXxCuGyKzDiA84Ap1S-651" value="" style="rounded=0;whiteSpace=wrap;html=1;" vertex="1" parent="1">
          <mxGeometry x="-1318" y="4401" width="766" height="473" as="geometry" />
        </mxCell>
        <mxCell id="IAnXxCuGyKzDiA84Ap1S-652" value="本地浏览器" style="text;html=1;strokeColor=none;fillColor=none;align=center;verticalAlign=middle;whiteSpace=wrap;rounded=0;fontSize=20;" vertex="1" parent="1">
          <mxGeometry x="-1320" y="4332" width="136" height="60" as="geometry" />
        </mxCell>
        <mxCell id="IAnXxCuGyKzDiA84Ap1S-653" value="" style="rounded=0;whiteSpace=wrap;html=1;" vertex="1" parent="1">
          <mxGeometry x="-1265" y="4459" width="657" height="357" as="geometry" />
        </mxCell>
        <mxCell id="IAnXxCuGyKzDiA84Ap1S-655" value="&amp;lt;iframe src=&quot;腾讯视频&quot;&amp;gt;" style="text;html=1;strokeColor=none;fillColor=none;align=center;verticalAlign=middle;whiteSpace=wrap;rounded=0;fontSize=20;" vertex="1" parent="1">
          <mxGeometry x="-1281" y="4408" width="256" height="60" as="geometry" />
        </mxCell>
        <mxCell id="IAnXxCuGyKzDiA84Ap1S-656" value="&amp;lt;iframe src=&quot;会员弹窗&quot;&amp;gt;" style="text;html=1;strokeColor=none;fillColor=none;align=center;verticalAlign=middle;whiteSpace=wrap;rounded=0;fontSize=20;" vertex="1" parent="1">
          <mxGeometry x="-1100" y="4508" width="256" height="60" as="geometry" />
        </mxCell>
        <mxCell id="IAnXxCuGyKzDiA84Ap1S-657" value="" style="rounded=0;whiteSpace=wrap;html=1;" vertex="1" parent="1">
          <mxGeometry x="-1082" y="4559.5" width="294" height="156" as="geometry" />
        </mxCell>
        <mxCell id="IAnXxCuGyKzDiA84Ap1S-658" value="" style="rounded=0;whiteSpace=wrap;html=1;" vertex="1" parent="1">
          <mxGeometry x="-406.5" y="4401" width="766" height="473" as="geometry" />
        </mxCell>
        <mxCell id="IAnXxCuGyKzDiA84Ap1S-659" value="联想小程序" style="text;html=1;strokeColor=none;fillColor=none;align=center;verticalAlign=middle;whiteSpace=wrap;rounded=0;fontSize=20;" vertex="1" parent="1">
          <mxGeometry x="-421" y="4335" width="136" height="60" as="geometry" />
        </mxCell>
        <mxCell id="IAnXxCuGyKzDiA84Ap1S-660" value="" style="rounded=0;whiteSpace=wrap;html=1;" vertex="1" parent="1">
          <mxGeometry x="-353.5" y="4459" width="657" height="357" as="geometry" />
        </mxCell>
        <mxCell id="IAnXxCuGyKzDiA84Ap1S-661" value="&amp;lt;iframe src=&quot;腾讯视频&quot;&amp;gt;" style="text;html=1;strokeColor=none;fillColor=none;align=center;verticalAlign=middle;whiteSpace=wrap;rounded=0;fontSize=20;" vertex="1" parent="1">
          <mxGeometry x="-369.5" y="4408" width="256" height="60" as="geometry" />
        </mxCell>
        <mxCell id="IAnXxCuGyKzDiA84Ap1S-662" value="&amp;lt;iframe src=&quot;会员弹窗&quot;&amp;gt;" style="text;html=1;strokeColor=none;fillColor=none;align=center;verticalAlign=middle;whiteSpace=wrap;rounded=0;fontSize=20;" vertex="1" parent="1">
          <mxGeometry x="-188.5" y="4508" width="256" height="60" as="geometry" />
        </mxCell>
        <mxCell id="IAnXxCuGyKzDiA84Ap1S-663" value="" style="rounded=0;whiteSpace=wrap;html=1;" vertex="1" parent="1">
          <mxGeometry x="-170.5" y="4559.5" width="294" height="156" as="geometry" />
        </mxCell>
        <mxCell id="IAnXxCuGyKzDiA84Ap1S-664" value="没问题" style="text;html=1;strokeColor=none;fillColor=none;align=center;verticalAlign=middle;whiteSpace=wrap;rounded=0;fontSize=20;" vertex="1" parent="1">
          <mxGeometry x="-1006" y="4608" width="142" height="59" as="geometry" />
        </mxCell>
        <mxCell id="IAnXxCuGyKzDiA84Ap1S-665" value="&lt;font color=&quot;#ff0000&quot;&gt;&lt;b&gt;上面提到的报错&lt;/b&gt;&lt;/font&gt;" style="text;html=1;strokeColor=none;fillColor=none;align=center;verticalAlign=middle;whiteSpace=wrap;rounded=0;fontSize=20;" vertex="1" parent="1">
          <mxGeometry x="-83" y="4605" width="142" height="59" as="geometry" />
        </mxCell>
      </root>
    </mxGraphModel>
  </diagram>
</mxfile>
